<svg version="1.1" xmlns="http://www.w3.org/2000/svg" viewBox="0 0 1425.9757843017578 859.4601745605469" width="1425.9757843017578" height="859.4601745605469">
  <!-- svg-source:excalidraw -->
  
  <defs>
    <style>
      @font-face {
        font-family: "Virgil";
        src: url("https://excalidraw.com/Virgil.woff2");
      }
      @font-face {
        font-family: "Cascadia";
        src: url("https://excalidraw.com/Cascadia.woff2");
      }
    </style>
  </defs>
  <rect x="0" y="0" width="1425.9757843017578" height="859.4601745605469" fill="#ffffff"></rect><g stroke-linecap="round" transform="translate(182.24417114257812 174.49929809570312) rotate(0 146.37298583984375 55.80924987792969)"><path d="M0 0 C0 0, 0 0, 0 0 M0 0 C0 0, 0 0, 0 0 M-0.2 6.03 C1.35 5.39, 2.93 2.83, 5.27 -0.39 M-0.1 6.38 C1.56 4.2, 2.66 3, 5.13 0.7 M1.37 10.78 C1.09 8.92, 5.51 5.2, 10.08 -0.57 M-0.39 11.97 C3.31 8.13, 8 3.52, 10.48 -0.26 M0.26 20.12 C4.64 12.39, 9.72 6.77, 14.35 1.11 M-0.73 18.34 C4.93 11.67, 11.53 5.97, 15.73 0.31 M2.11 24.05 C5.99 17.62, 13.23 12.1, 21.08 1.91 M-0.2 23.28 C5.3 18.01, 11.72 10.7, 20.91 -0.39 M-0.09 30.39 C8.07 24.33, 14.04 15.06, 26.97 0.78 M0.94 31.39 C6.84 23.09, 12.58 16.1, 25.53 1.23 M0.11 36.58 C8.93 28.07, 17.13 13.72, 33.7 -2.09 M-0.25 36.37 C11.59 22.56, 22.56 8.46, 32.3 0.34 M1.87 41.65 C15.75 24.81, 28.7 8.44, 37.5 0.68 M0.6 41.71 C13.67 26.78, 26.8 11.75, 36.86 1.12 M-1.95 48.59 C15.29 33.73, 29.06 17.62, 43.3 -0.32 M0.17 48.43 C11.72 35.88, 21.94 22.66, 43.06 -0.73 M0.75 53.13 C12.5 39.32, 27.62 25.84, 46.47 -1.14 M0.15 54.28 C15.25 36.92, 30.12 20.49, 46.77 -0.58 M-1.05 61.79 C12 45.47, 23.89 32.04, 54.97 -0.51 M0.92 61.22 C15.95 41.12, 33.1 21.34, 53.12 -0.36 M0.11 68.73 C20.31 44.78, 38.94 19.84, 59.04 -1.69 M0.28 66.63 C13.46 52.04, 25.48 37.6, 58.3 0.87 M-0.92 74.03 C25.69 45.61, 49.93 18.65, 65.39 -0.47 M0.44 73.04 C21.84 48.92, 42.76 23.1, 62.84 -0.56 M1.08 80.02 C27.72 48.46, 54.14 16.15, 66.91 0.92 M0.11 78.83 C23.33 52.9, 46.08 27.13, 69.39 0.5 M1.28 86.08 C20.44 63.36, 40.23 38.77, 72.84 -2.12 M0.13 84.48 C17.71 66.02, 32.76 46.09, 74.03 0.5 M0.4 92.71 C23.92 60.43, 50.72 29.89, 78.43 1.48 M0.24 91.01 C31.54 56.83, 60.84 20.03, 79.98 0.66 M0.34 96.35 C22.46 73.93, 44.14 48.96, 83.18 -1.46 M0.7 98.2 C28.93 64.84, 56.78 30.45, 84.96 -0.58 M-0.93 101.67 C25.63 75.39, 48.39 48.05, 88.5 1.69 M0.38 103.33 C28.9 68.44, 59.7 34.87, 90.93 -0.04 M-0.37 107.91 C20.16 87.22, 41.61 61.58, 95.89 1.42 M-0.22 108.88 C33.67 69.72, 67.05 31.84, 95.37 0.6 M1.64 111.41 C23.49 87.5, 43.41 63.47, 100.65 0.16 M1.66 113.49 C38.6 73.11, 74.79 31.48, 101.08 0.33 M8.34 114.7 C39.26 78.13, 71.05 40.59, 106.03 0.33 M8.18 114.47 C46.52 68.4, 85.51 23.67, 105.43 -0.76 M12.85 115.08 C49.18 73.19, 84.96 32.44, 112.96 -1.6 M12.25 112.72 C38.19 83.37, 65.7 53.54, 112.19 0.01 M19.76 113.63 C40.11 87.34, 62.93 66.07, 117.57 1.72 M17.18 113.27 C47.64 79.41, 76.16 46.73, 116.11 1.1 M23.97 115.07 C44.72 89.19, 63.13 63.04, 120.15 -1.18 M22.69 113.39 C55.05 76.87, 86.49 39.52, 122.01 0.51 M28.44 113.77 C56.88 85.18, 80.06 54.19, 128.1 -0.27 M28.68 114.16 C59.37 77.91, 89.86 43.28, 126.82 0.47 M34.35 113.88 C56.01 83.78, 80.58 55.82, 131.5 -1.24 M34.51 112.85 C69.05 71.34, 105 31.33, 133.22 -0.35 M38.79 115.32 C67.94 80.59, 98.41 43.14, 138.78 -1.38 M38.8 114.5 C62.68 85.88, 89.35 56.44, 138.43 -0.32 M44.95 113.91 C69.88 85.52, 92.53 58.36, 144.9 0.44 M44.68 112.26 C75.45 76.49, 105.79 40.34, 142.46 0.55 M47.82 115.39 C80.53 80.75, 110.35 47.71, 147.05 -0.16 M49.61 112.97 C84.28 73.33, 119.17 32.88, 148.93 1.13 M56.35 111.47 C73.21 92.32, 94.51 68.53, 152.83 1 M54.63 113.57 C86.32 80.73, 115.42 46.77, 153.32 0.61 M59.15 113.98 C83.97 83.68, 111.79 55.33, 159.94 0.72 M60.15 112.56 C96.92 72.49, 133.06 31.26, 159.76 1 M66.03 115.54 C100.36 69.56, 139.79 24.89, 164.36 -1.52 M64.59 113.27 C93.65 81.63, 122.21 49.93, 165.34 0.55 M72.97 112.01 C106.52 73.87, 136.86 34.53, 168.07 0.51 M71.4 113.53 C97.11 82.59, 124.68 51.75, 168.83 0.28 M77.06 114.73 C101.01 83.83, 125.99 54.31, 175.17 -2.16 M75.19 114.41 C100.73 84.42, 126.7 56.23, 175.03 -0.63 M80.06 113.32 C116.2 73.94, 153.58 31.05, 179.65 -1.63 M81.29 112.44 C119.43 68.57, 159.68 23.37, 179.49 -0.27 M88.1 111.8 C123.18 71.23, 162.9 26.89, 185.51 0.92 M86.58 114.09 C109.55 87.87, 132.11 62.4, 184.83 -0.62 M91.83 114.62 C118.93 81.02, 143.14 51.74, 190.49 -0.66 M91.72 113.18 C121.05 79.55, 150.02 47.04, 191.53 0.95 M98.11 114.71 C130.39 73.21, 165.18 35.76, 198.24 0.5 M97.98 113.43 C122.25 85.56, 147.07 57.03, 196.15 -0.83 M102.24 111.57 C127.95 82.44, 155.19 52.84, 202 0.41 M103.52 113.88 C126.05 89.01, 147.81 63.95, 202.21 -0.7 M107.6 115.3 C146.47 70.39, 181.66 28.97, 208.8 -1.76 M108.11 113.38 C129.5 87.79, 152.35 61.6, 206.36 0.64 M113.87 112.69 C140.75 81.24, 167.6 50.17, 211.16 0.43 M113.48 114.02 C144.65 78.82, 174.13 43.45, 211.24 0.95 M116.7 115.3 C152.54 75.03, 183.38 39.31, 219.24 -1.29 M118.09 113.67 C141.18 87.33, 163.23 62.13, 217.75 -0.02 M123.89 113.45 C152.23 79.33, 181.08 48.26, 224.57 -1.81 M123.37 113.35 C161.83 70.31, 197.66 29.44, 221.79 -0.13 M131.12 112.37 C165.8 70.14, 199.71 27.69, 228.2 -0.6 M128.54 113.82 C149.72 87.7, 173.11 61.58, 228.59 -1.32 M134.07 114.19 C160.01 83.84, 182.67 54.07, 232.42 -1.63 M134.88 112.93 C162.17 78.59, 191.11 46.75, 233.46 0.82 M140.16 114.07 C160.04 88.45, 181.39 66.01, 236.25 1.44 M140.5 114.17 C177.08 73.19, 211.98 31.98, 237.44 1.29 M144.74 114.18 C180.52 77.92, 211.39 37.79, 242.47 1.56 M144.65 114.09 C172.02 84.29, 196.91 54.92, 243.34 0.37 M150.74 111.86 C180.56 75.58, 212.91 38.4, 250.52 0.63 M150.48 112.83 C178.37 83.56, 203.72 53.71, 248.79 -0.62 M156.87 113.59 C180.5 83.29, 204.81 58.69, 254.1 -1.74 M155.32 113.5 C185.38 80.47, 213.89 45.66, 254.93 -0.14 M161.34 115.13 C192.4 76.44, 223.53 39.27, 258.78 1.91 M161.45 112.73 C194.39 75.7, 227.69 39.05, 260.11 1.08 M166 111.5 C200.18 72.48, 238.49 28.75, 264.27 -1.13 M166.42 114.08 C203.2 73.08, 240.39 30.08, 265.22 0.45 M172.06 113.13 C205.55 76.1, 237.5 37.81, 270.04 -1.6 M171.8 112.58 C196.48 84.99, 220.55 56.63, 269.46 1.07 M176.26 111.87 C201.01 89.79, 222.11 63.51, 277.54 -0.3 M177.48 112.09 C201.56 84.37, 226.64 55.34, 275.63 0.1 M182.57 113.07 C208.99 82.28, 234.88 52.01, 279.9 2.09 M182.42 113.89 C209.91 82.08, 237.43 49.23, 279.88 0.33 M185.73 114.37 C223.27 75.6, 256.27 34.97, 288.07 0.97 M186.31 112.81 C212.3 84.11, 238.4 56.47, 287.04 0.56 M194.16 114.03 C229.83 69.68, 267.92 28.47, 292.56 1.93 M193.61 113.98 C226.9 72.93, 262.39 33.71, 290.36 1.13 M199.03 113.26 C224.28 85.8, 246.58 58.5, 295.62 3.06 M198.63 114.57 C232.06 78.11, 264.21 40.23, 294.83 2.62 M203.7 113 C224.44 89.01, 249.82 59.29, 295.59 10.02 M204.15 112.95 C222.44 91.21, 240.6 69.76, 295.6 8.33 M209.44 112 C234.7 85.6, 259.39 54.95, 296.99 15.54 M209.18 114.25 C239.9 77.23, 272.08 40.66, 295.21 14.18 M213.65 114.89 C229.69 92.74, 247.29 74.51, 296.33 18.57 M214.26 112.71 C232.44 90.52, 252.34 68.53, 295.44 21.28 M219.47 114.21 C247.77 81.11, 274.82 49.2, 295.62 24.54 M219.26 113.28 C236.54 93.17, 256.57 71.98, 295.95 26.57 M226.06 114.5 C247.78 84.22, 271.27 56.1, 296.03 31.45 M224.63 113.96 C240.51 95.57, 255.54 79.23, 296 32.36 M230.22 114.38 C253.7 82.51, 283.15 52.4, 295.4 38.65 M229.17 113.38 C255.71 84.56, 281.11 54.05, 295.1 39.47 M236.59 114.56 C250.92 93.75, 267.86 77.16, 293.26 45.19 M235.37 113.19 C248.22 97.06, 260.32 83.13, 296.07 45.02 M239.38 111.95 C256.56 95.15, 269.91 77.35, 293.75 50.12 M241.14 113.58 C257.44 93.84, 272.15 76.5, 295.11 51.12 M244.49 111.69 C264.74 92.93, 285.61 70.69, 297.19 55.26 M245.09 113.71 C259.77 96.42, 273.39 80.84, 295.41 57.04 M251.26 113.23 C265.87 95.6, 282.72 75.93, 295.74 61.34 M250.34 113.2 C266.77 94.83, 281.59 78.34, 295.93 63.78 M258.6 114.4 C268.76 95.99, 283.79 82.09, 292.93 70.75 M255.8 112.59 C269.06 99.19, 280.07 85.07, 295.05 70.21 M262.73 113.46 C271.83 102.68, 279.37 94.14, 294.66 75.88 M261.93 112.84 C273.23 99.78, 285.98 86.27, 294.6 75.8 M267.34 113.15 C275.64 102.22, 280.72 96.2, 294.14 81.43 M268.02 113.74 C273.33 106.66, 280.01 98.86, 294.96 82.37 M273.28 114.77 C282.41 103.16, 288.8 92.19, 293.43 85.2 M271.99 113.43 C277.62 107.36, 285.03 99.9, 295.65 87.29 M276.75 114.26 C283.23 106.02, 290.14 99.14, 293.12 92.21 M277.67 112.83 C282.27 109.9, 285.2 105.85, 295.1 92.93 M282.98 112.34 C287.4 108.54, 289.22 103.29, 293.97 99.48 M282.6 113.19 C285.94 110.38, 289.79 106.1, 295.3 99.92 M288.52 113.53 C291.57 109.77, 292.32 107.44, 294.29 105.85 M288.88 112.71 C290.84 109.77, 294.15 106.69, 295.1 105.18" stroke="#4c6ef5" stroke-width="0.5" fill="none"></path><path d="M0.09 0.08 C59.35 0.55, 117.62 1.04, 293.97 0.46 M0.2 0.35 C101.6 -1.06, 203.87 -2.27, 292.76 0.24 M292.12 0.95 C293.16 29.41, 292.39 57.59, 294.43 113.4 M293.32 0.58 C293.97 42.53, 293.53 84.65, 292.23 112.53 M292.95 111.82 C222.43 112.92, 151.15 110.79, 0.55 111.81 M293.02 110.88 C190.04 110.53, 87.4 110.11, 0.24 111.22 M1.76 110.3 C-0.49 83.92, -2.26 57.5, 1.27 -1.77 M-0.02 112.34 C1.2 79.7, 0.42 45.2, -0.11 -0.34" stroke="#000000" stroke-width="1" fill="none"></path></g><g transform="translate(235.07882690429688 207.79827880859375) rotate(0 99.55834167480464 19.598098754882812)"><text x="0" y="28.19619750976561" font-family="Virgil, Segoe UI Emoji" font-size="31.35695800781249px" fill="#000000" text-anchor="start" style="white-space: pre;" direction="ltr">elastic proxy</text></g><g stroke-linecap="round"><g transform="translate(322.61175161895187 84.86067632809204) rotate(0.3313614982383103 1.0894225554367267 38.42689755635399)"><path d="M-0.77 0.49 C-0.22 13.52, 2.38 64.43, 2.95 77.16 M1.03 -0.3 C1.5 12.5, 2.12 63.03, 2.27 75.55" stroke="#c92a2a" stroke-width="4" fill="none"></path></g><g transform="translate(322.61175161895187 84.86067632809204) rotate(0.3313614982383103 1.0894225554367267 38.42689755635399)"><path d="M-7.53 48.37 C-4.07 55.53, -1.73 64.55, 1.4 77.22 M-8.04 47.7 C-5.2 53.67, -2.77 60.97, 1.47 75.65" stroke="#c92a2a" stroke-width="4" fill="none"></path></g><g transform="translate(322.61175161895187 84.86067632809204) rotate(0.3313614982383103 1.0894225554367267 38.42689755635399)"><path d="M12.99 48.1 C10.87 55.21, 7.62 64.3, 1.4 77.22 M12.48 47.44 C10.59 53.3, 8.3 60.65, 1.47 75.65" stroke="#c92a2a" stroke-width="4" fill="none"></path></g></g><g stroke-linecap="round" transform="translate(90.80441284179688 546.4015045166016) rotate(0 146.37298583984375 55.80924987792969)"><path d="M0 0 C0 0, 0 0, 0 0 M0 0 C0 0, 0 0, 0 0 M0.03 6.23 C0.17 5.79, 2.15 4.59, 5.59 0.55 M-0.02 6.77 C1.61 4.62, 2.42 3.03, 4.64 0.31 M-0.12 11.61 C2.47 10.95, 5.36 8.3, 10.15 -0.21 M-0.63 12.81 C1.98 10.43, 3.62 7.64, 10.6 -0.28 M-0.22 16.64 C3.05 14.93, 7.61 10.2, 14.06 -0.86 M0.35 18.24 C5.37 12.82, 10.33 6.58, 15.19 0.88 M-1.06 25.44 C7.5 16.04, 17.17 8.46, 20.5 1.81 M0.63 24.46 C7.29 14.42, 16.86 5.57, 21.33 -0.08 M0.75 31.85 C11.88 16.87, 19.93 7.67, 24.59 -0.97 M0.12 31.3 C7.7 22.92, 12.55 14.62, 25.95 1.24 M1.02 38.48 C10.78 27.33, 19.05 13.54, 32.99 -1.48 M-0.21 36.76 C8.12 27.83, 16.04 17.63, 32.87 0.13 M-1.07 40.93 C12.61 24.58, 29.28 8.58, 37.57 -1.38 M-0.42 41.97 C12.17 29.35, 23.54 14.83, 36.5 0.23 M-2.03 50.12 C14 32.67, 26.33 17.5, 41.53 0.23 M-0.52 48.88 C15.25 31.67, 30.17 14.52, 43.16 -0.03 M-0.52 53.08 C15.47 35.38, 33.64 18.73, 49.09 0.97 M0.12 55.49 C13.96 39.61, 26.09 26.18, 46.87 0.05 M0.33 59.03 C22.04 35.15, 40.69 14.5, 51.72 -0.83 M0.55 61.34 C22.6 35.58, 42.36 11.61, 52.6 -0.08 M-1.53 68.18 C21.14 45.1, 39.63 23.46, 57.79 0.02 M-1.09 66.67 C11.39 53.99, 24.57 38.33, 58.07 -0.78 M1.89 74.04 C23.82 43.42, 51.19 14.34, 62.78 -0.49 M-0.57 72.21 C17.3 55.89, 31.44 36.98, 63.04 0.27 M-0.43 79.75 C14.73 62.66, 30.81 43.18, 66.95 -1.38 M0.55 79.85 C22.61 52.14, 46.63 23.36, 69.05 -0.46 M1.04 84.88 C26.48 57.91, 50.83 28.18, 73.53 -0.71 M0.5 84.86 C17.01 67.88, 32.54 49.84, 74.77 0.09 M0.05 89.48 C31.46 54.97, 61.99 21.1, 78.42 -1.45 M0.12 92.4 C20.56 69.61, 39.68 46.38, 79.72 1.09 M-1.9 96.94 C17.15 75.74, 37.6 54.28, 84.36 0.5 M0.46 97.69 C25.75 67.5, 52.47 36.33, 85.57 0.25 M-0.57 102.22 C31.83 65.81, 61.95 30.28, 90.65 -1.54 M0.83 102.76 C33.6 66.07, 67.05 28.94, 89.93 -0.71 M-0.04 110.25 C28.66 74.45, 59.51 44.66, 95.28 -1.02 M-0.1 110.17 C20.14 86.39, 41.4 64.76, 95.62 0.42 M2.81 114.43 C22.58 90.64, 41.36 66.02, 100.68 -0.06 M2.28 113.92 C34.28 74.78, 67.87 38.16, 100.48 -0.17 M5.35 113.72 C42.65 72.1, 78.74 31.34, 107.86 -1.46 M7.65 114 C36.05 82.19, 63.7 49.21, 106.61 0.08 M13.47 113.23 C49.56 74.95, 81.2 33.27, 110.14 1.46 M12.14 113.34 C40.29 81.77, 66.94 51.85, 112.16 -0.32 M19.1 113.24 C39.66 89.96, 58.43 64.43, 114.64 1.59 M17.96 114.25 C53.47 71.99, 88.49 31.96, 115.98 0.23 M23.17 112.99 C62.15 69.1, 96.32 26.79, 123.27 0.41 M23.42 112.66 C50.56 83.17, 77.59 51.78, 122.67 0.15 M29.26 112.83 C53.98 83.46, 81.57 52.38, 127.71 0.23 M28.7 113.57 C63.68 71.31, 101.62 28.45, 126.63 -0.57 M33.82 114.17 C72.54 69.33, 107.14 25.53, 132.9 -0.92 M33.14 113.51 C64.84 79.38, 94.46 45.71, 131.68 -0.19 M39.81 113.66 C71.39 77.38, 101.44 44.12, 136.77 -1.29 M39 114.07 C68.03 78.99, 100.15 44.08, 137.9 1.29 M42.92 111.15 C67.9 86.52, 89.92 61.27, 142.43 -1.32 M44.75 112.31 C77.98 76.15, 108.85 41.54, 143.82 -0.45 M49.27 111.82 C82.47 72.44, 117.51 35.47, 149.81 0.43 M48.89 114.23 C77.9 84.05, 103.65 52.04, 147.28 0.46 M53.56 114.2 C86.41 77.94, 121.67 39.11, 151.88 1.31 M55.17 113.26 C89.19 73.17, 125.7 30.6, 153.67 -0.46 M60.79 112.28 C92.5 74.45, 127.58 32.5, 158.36 -1.31 M60.41 113.76 C97.74 69.11, 137.13 24.21, 158.7 0.4 M63.76 112.26 C89.65 90, 108.77 63.2, 163.86 -0.02 M65.11 114.15 C87.39 86.66, 109.68 62, 164.75 0.25 M72.09 114.93 C101.9 76.01, 134.04 42, 167.59 -1.28 M70.52 112.71 C104.12 74.99, 136.96 36.47, 169.54 0.35 M75.12 111.92 C113.49 72.3, 152.66 26.91, 173.56 0.61 M76.7 114.28 C98.46 89.79, 120.64 64.53, 174.54 -0.54 M81.5 112.56 C103.55 87.02, 127.35 61.2, 178.24 -0.37 M82.13 112.42 C121.71 68.27, 161.08 21.66, 179.63 0.36 M86.84 111.92 C114.4 79.86, 141.55 49.73, 186.77 0.03 M86.54 113.99 C106.51 90.09, 127.28 64.89, 185.48 -0.76 M93.93 112.87 C116.64 85.39, 137.43 58.58, 192.64 0.46 M93.13 112.51 C112.03 90.42, 131.81 67.86, 190.26 0.27 M96.4 114.16 C124.23 83.61, 152.53 48.25, 197.89 -0.04 M97.38 112.7 C131.08 73.68, 166.69 33.28, 195.97 -1.04 M102.9 112.47 C136.41 76.89, 166.19 38.33, 200.75 -1.87 M103.33 113.91 C123.97 91.94, 144.01 68.81, 201.17 0.71 M108.84 114.46 C141.87 78.05, 174.61 39.78, 207.89 1.05 M108.38 114.61 C142.67 73.6, 178.76 31.21, 207.33 0.26 M112.52 114.87 C140.55 82.78, 167.76 48.61, 210.07 1.49 M113.52 113.85 C150.44 69.68, 187.74 26.28, 211.55 0.13 M118.83 112.54 C148.38 82.08, 173.62 48.92, 218.34 0.84 M118.17 113.72 C144.75 84.03, 169.59 53.96, 216.88 0.12 M123.47 112.49 C147.05 90.12, 167.55 63.35, 223.73 1.28 M124.43 112.84 C159.61 73.24, 193.41 33.27, 223.05 -0.24 M128.6 114 C168.79 68.96, 203.51 28.61, 229.42 -0.23 M129.85 112.82 C153.74 87.65, 177.52 59.34, 228.84 -0.22 M135.06 112.65 C166.81 74.85, 197.35 39.13, 234.44 0.16 M135.74 113.71 C162.09 83.42, 187.47 54.48, 232.78 0.61 M138 112.39 C176.74 72.23, 209.62 32.87, 237.22 -0.04 M139.94 114.5 C176.38 72.16, 212.53 30.64, 238.79 0.56 M147.16 111.58 C180.32 75.3, 214.79 37.5, 242.52 -1.32 M145.1 112.57 C172.59 82.53, 198.91 51.28, 244.27 0.53 M150.47 115.12 C184.84 73.02, 221.12 32.41, 250.42 0.16 M149.45 114.16 C180.19 81.24, 208.05 46.67, 249.16 -0.21 M154.27 112.43 C176.13 88, 198.69 65.38, 253.86 1.32 M155.09 113.83 C184.57 80.57, 214.36 45.8, 254.55 -0.87 M163.01 113.56 C185.17 86.33, 204.85 62.24, 260.31 -1.71 M160.8 112.97 C195.63 75.16, 230.35 34.91, 260.43 0.38 M167.44 111.23 C195.64 79.35, 223.71 47.46, 265.97 -1.57 M166.27 113.2 C193.34 85.18, 218.72 54.98, 265.06 0.83 M172.27 112.93 C206.02 74.87, 243.71 32.43, 269.43 -1.57 M170.91 112.91 C195.37 87.25, 218.54 58.43, 270.65 0.77 M176.36 114.94 C205.56 80.45, 236.24 46.97, 273.92 0.31 M178.12 112.68 C199.52 88.26, 222.48 61.84, 276.72 -0.14 M180.44 114.4 C210.65 80.35, 239.53 45.42, 280.92 1.56 M182.11 113.78 C218.28 72.89, 254.3 31.91, 279.83 0.69 M186.62 112.16 C220.51 70.8, 257.81 31.12, 284.4 -0.87 M187.45 114.34 C217.67 79.92, 246.65 46.5, 286.9 -0.79 M193.35 113.03 C226.52 71.8, 261.61 31.98, 292.5 -0.43 M193.21 114.14 C218.82 81.27, 245.7 51.22, 290.95 0.19 M196.4 112.15 C219.64 87.15, 243.27 61.04, 295.73 1.25 M197.98 114.27 C225.09 82.89, 250.81 52.11, 294.44 1.97 M202.39 111.77 C232.45 78.63, 267.45 42.23, 295.29 9.54 M204.48 112.36 C224.73 89.52, 244.8 65.57, 295.69 8.9 M210.48 115.33 C225.45 91.52, 245.68 72.16, 293.21 12.22 M209.39 114.1 C227.35 93.11, 244.92 71.45, 296.07 13.29 M214.56 111.5 C235.62 89.98, 256.29 64.99, 294.13 18.66 M214.61 113.62 C236.04 90.59, 255.88 67.07, 295.89 19.93 M220.91 112.28 C237.17 95.21, 254.85 74.13, 294.83 28.12 M219.01 113.05 C240.67 87.54, 264.32 61.65, 295.02 26.77 M226.44 113 C243.76 95.03, 259.84 76.16, 293.83 31.76 M225.77 112.89 C243.41 92.7, 262.34 72.29, 294.63 32.42 M228.32 114.47 C256.39 84.76, 280.59 52.92, 293 37.51 M230.1 113.59 C253.23 87.85, 275.2 62.84, 293.83 39.35 M234.22 114.96 C255.01 91.43, 275.44 65.74, 294.48 44.34 M234.57 113.92 C256.27 91.06, 275.56 69.46, 294.71 43.61 M239.95 112.3 C250.31 100.22, 265.91 85.41, 295.67 50.61 M240.87 114.51 C255.31 95.03, 271.21 78.73, 294.43 51.54 M247.68 111.95 C266.14 90.92, 284.97 70.82, 296.78 56.83 M245.09 112.27 C257.26 99.67, 268.18 86.46, 294.84 56 M251.61 113.06 C270.52 91.53, 284.67 73.5, 296.45 61.79 M251.5 113.9 C264.38 98.01, 276.66 83.7, 295.26 62.87 M256.18 112.49 C270.18 98.97, 283.52 82.81, 295.37 69.31 M255.84 112.31 C269.18 100.34, 280.56 86.66, 294.07 69.19 M261.73 114.94 C268.7 104.46, 278.16 94.66, 295.17 76.58 M261.1 114.15 C270.51 102.79, 278.01 94.04, 294.85 75.94 M266.7 112.96 C276.13 104.35, 283.07 94.99, 295.45 80.49 M266.8 112.19 C278.01 101.44, 289.05 87.47, 295.35 81.76 M273.32 113.05 C277.39 109.14, 284.18 102.8, 295.26 86.41 M272.77 112.91 C278.58 105.67, 287.54 97.92, 296.19 86.14 M277.79 111.69 C282.44 105.64, 289.61 98.49, 294.84 94.27 M278.41 112.86 C282.88 106.72, 289.2 100.63, 294.6 92.89 M283.87 113.42 C286.5 108.15, 288.29 105.95, 293.26 99.42 M282.56 114.11 C287.52 109.3, 290.24 104.7, 295.04 99.45 M289.1 113.98 C290.21 110.13, 291.89 109, 295.89 106.11 M288.57 113.07 C290.7 110.54, 292.95 109.1, 294.77 105.91" stroke="#12b886" stroke-width="0.5" fill="none"></path><path d="M0.89 0.96 C104.12 -0.44, 206.36 0.35, 292.43 0.44 M0.2 -0.73 C88.17 -0.94, 178.38 -0.9, 293.38 0.45 M293.79 -1.72 C291.51 37.73, 294 71.95, 294.36 112.08 M292.45 0.86 C293.16 27.51, 292.17 54.47, 293.49 112.12 M293.54 111 C188.61 111.65, 85.67 112.68, -0.3 111.4 M292.11 110.89 C221.12 111.92, 150.25 111.29, 0.5 111.76 M-0.77 109.72 C0.08 72.41, 2.88 31.29, -1.34 0.45 M-0.98 111.19 C-0.32 83.51, -1.29 54.82, -0.74 0.29" stroke="#000000" stroke-width="1" fill="none"></path></g><g transform="translate(142.56637573242188 583.9003295898438) rotate(0 83 15.5)"><text x="0" y="22" font-family="Virgil, Segoe UI Emoji" font-size="24.156835937499984px" fill="#000000" text-anchor="start" style="white-space: pre;" direction="ltr">elastic server</text></g><g stroke-linecap="round"><g transform="translate(325.1292594366513 292.45151891740045) rotate(0 -51.594802338146735 122.6789982464164)"><path d="M0.03 0.08 C-16.93 41, -85.29 205.33, -102.27 246.28 M-1.41 -0.92 C-18.49 39.62, -86.39 203.95, -103.22 244.74" stroke="#c92a2a" stroke-width="4" fill="none"></path></g><g transform="translate(325.1292594366513 292.45151891740045) rotate(0 -51.594802338146735 122.6789982464164)"><path d="M-101.81 214.75 C-100.23 223.18, -101.34 231.03, -101.85 246.42 M-102.77 214.14 C-102.81 220.6, -102.6 228.03, -102.41 245.65" stroke="#c92a2a" stroke-width="4" fill="none"></path></g><g transform="translate(325.1292594366513 292.45151891740045) rotate(0 -51.594802338146735 122.6789982464164)"><path d="M-82.84 222.58 C-86.22 228.99, -92.24 234.82, -101.85 246.42 M-83.81 221.97 C-87.98 226.82, -91.93 232.53, -102.41 245.65" stroke="#c92a2a" stroke-width="4" fill="none"></path></g></g><g stroke-linecap="round" transform="translate(581.3108215332031 497.0539093017578) rotate(0 146.37298583984375 55.80924987792969)"><path d="M0 0 C0 0, 0 0, 0 0 M0 0 C0 0, 0 0, 0 0 M-0.83 5.77 C1.7 5.6, 1.61 3.59, 4.39 0.74 M-0.32 6.47 C0.75 5.26, 2.09 3.52, 4.62 0.05 M1.2 12.76 C2.88 8.95, 6.6 2.85, 11.09 -1.02 M0.44 11.98 C4.14 8.33, 7.62 3.63, 10.28 -0.22 M0.33 18.07 C5.16 16.16, 8.15 12.36, 16.34 0.98 M-0.11 17.46 C6.09 10.8, 12.08 4.52, 15.13 -0.46 M0.49 26 C7.26 19.54, 11.5 12.2, 21.9 1.88 M-0.56 23.63 C4.2 18.72, 9.45 13.72, 20.92 0.32 M1.42 30.19 C7 21.27, 15.43 10.72, 27.3 1.34 M-0.35 29.85 C9.28 19.07, 17.83 8.78, 26.56 -0.52 M1.11 35.45 C11.64 22.78, 24.75 10.39, 31.68 -1.69 M-0.22 37.06 C9.33 24.69, 20.08 15.18, 31.69 -0.46 M0.18 43.11 C6.99 32.81, 17.46 26.42, 36.78 1.73 M0.42 43.11 C7.71 34.22, 14.56 24.83, 36.89 0.2 M-0.06 50.24 C12.4 31.63, 27.89 17.83, 42.17 -0.59 M-1.06 48.97 C15.11 30.99, 30.64 13.5, 43.3 -0.7 M1.1 55.32 C15.29 40.82, 27.82 24.07, 48.13 1.07 M0.56 54.57 C17.92 36.21, 33.04 16.16, 46.93 0.94 M-1.48 61.19 C14.56 43.14, 28.64 28.41, 54.9 -0.84 M0.62 60.79 C11.75 48.19, 21.97 34.46, 52.33 0.44 M-0.07 68.7 C22.13 41.56, 42.67 18.43, 57.55 -0.1 M-0.42 67.26 C22.5 41.34, 43.09 16.15, 58.82 0.4 M-0.03 71.95 C16.82 54.85, 34.74 33.64, 65.29 0.13 M0.53 72.64 C16.74 53.49, 34.44 33.45, 64.18 -0.26 M0.3 79.43 C23.59 50.99, 51.48 20.47, 68.21 -1.67 M-0.28 79.91 C26.43 48.91, 51.27 18.34, 68.94 -0.28 M-1.72 85.76 C23.6 59.98, 45.61 35.48, 72.68 -0.51 M0.62 85.12 C24.08 58.29, 46.84 32.75, 74.03 -1.04 M-0.25 92.56 C22.39 63.4, 50.04 35.69, 80.13 2.08 M-0.91 90.46 C18.68 70.05, 36.89 49.15, 79.02 -0.5 M-0.28 96.21 C28.96 64.71, 54.73 36.86, 86.33 -1.01 M-0.49 97.01 C28.4 62.87, 58.53 29.87, 85.86 -0.2 M-1.58 104.98 C26.13 77.51, 48.48 46.99, 88.27 0.46 M-0.77 104.04 C29.27 70.93, 60.13 36.29, 89.06 0.8 M-0.56 110.24 C32.01 71.99, 68.6 28.75, 95.39 -0.99 M0.09 109.3 C31.79 71.17, 65.67 31.39, 95.45 -1.08 M2.3 113.89 C39.11 69.33, 79.24 23.97, 100.48 0.38 M1.44 112.49 C25.53 89.46, 45.68 63.87, 100.37 0.12 M6.71 114.32 C29.22 85.52, 51 62.43, 106.91 0.47 M7.77 114.38 C38.51 76.81, 70.69 41.28, 105.38 -1.09 M11.88 111.83 C46.45 74.73, 79.01 35.78, 111.52 0.31 M12.44 112.3 C50.45 71.23, 88.69 27.07, 110.53 0.42 M19.25 114.59 C40.83 90.56, 62.92 65.66, 115.21 -0.31 M17.79 113.17 C40.19 87.74, 62.91 62.37, 115.37 0.11 M24.48 111.28 C63.69 68.65, 103.22 20.53, 121.07 0.37 M23.61 112.28 C51.11 80.46, 78.56 49.43, 122.45 0.11 M28.31 114.06 C47.61 90.88, 68.05 64.78, 126.47 -0.72 M29.32 113.31 C51.95 85.67, 74.18 58.65, 127.88 0.5 M35.84 111.49 C53.79 90.48, 73.43 68.3, 131.7 0.22 M33.71 113.38 C61.33 82.34, 89.27 48.79, 133.33 0.06 M39.35 111.52 C71.89 73.87, 108.53 32.84, 136.81 -1.26 M39.12 113.09 C71.78 76.53, 102.86 38.62, 137.25 -0.68 M45.62 114.33 C66.52 92.49, 86.67 69.15, 142.89 1.14 M45.24 113.52 C77.93 76.88, 110.51 39.09, 143.64 0.59 M50.72 115.38 C83.31 74.62, 119.68 31.05, 148.91 1.38 M49.25 114.28 C76.46 82.48, 103.62 49.81, 147.23 0.98 M55.36 114.24 C92.11 70.06, 129.15 26.49, 153.02 0.01 M55.55 112.54 C84.64 80.97, 111.05 48.53, 154.18 0.46 M59.68 113.63 C87.29 83.91, 111.06 53.59, 157.37 1.13 M60.04 113.07 C82.35 89.61, 103.15 64.09, 159.37 0.86 M65.89 113.02 C101.11 73.63, 134.18 33.42, 165.4 -0.71 M65.1 114.01 C104.29 70.12, 140.39 28.4, 165.04 -0.09 M72.4 111.86 C96 88.43, 119.69 59.25, 170.68 0.49 M71.15 113.13 C102.86 75.85, 134.18 39.53, 170.04 0.28 M77.89 114.79 C104.15 84.22, 129.51 55.55, 174.21 1.04 M75.11 113.18 C112.7 72.71, 147.13 32.33, 174.58 -0.39 M81.96 115.26 C119.22 71.79, 155.36 30.35, 181.24 0.57 M82.51 112.58 C116.22 75.64, 150.03 37.68, 179.4 -0.47 M85.98 112.54 C114.32 83.44, 140.2 51.7, 186.57 0.91 M86.66 114.53 C122.25 72.65, 158.62 31.37, 186.5 -0.31 M90.34 114.6 C122.97 81.5, 149.74 45.67, 191.37 -0.93 M91.38 112.99 C112.92 88.64, 134.88 65.05, 190.38 0.83 M95.33 115.09 C126.18 81.07, 156.71 44.95, 196.49 -1.85 M98.25 113.73 C120.58 87.04, 141.57 62.18, 196.76 -1.26 M102.42 112.25 C137.61 75.4, 172.71 34.41, 203.27 0.28 M103.28 112.37 C131.5 80.39, 159.45 48.44, 201.75 -0.63 M107.06 113.86 C135.62 86.32, 160.76 55.4, 206.88 1.59 M108.19 113.4 C143.39 74.14, 180.24 32.21, 206.63 -1.21 M112 112.18 C137.52 87.87, 160.15 57.51, 213.08 1.09 M113.06 114.21 C142.03 80.24, 171.93 46.75, 211.04 0.29 M120.14 112.87 C140.32 89.4, 163.77 62.41, 219.58 -0.34 M117.59 114.12 C147.44 80.35, 176.84 45.68, 217.69 0.34 M123.78 113.94 C160.21 73.62, 196.93 32.3, 220.82 0.98 M123.83 112.42 C158.08 71.47, 194.49 31.21, 221.6 -0.31 M129.48 114.71 C159.88 79.93, 188.96 46.33, 229.3 -1.59 M129.36 113.42 C163.93 72.38, 199.29 31.98, 228.8 -0.67 M135.36 114.7 C160.76 80.53, 187.79 51.14, 232.41 0.01 M134.04 112.4 C157.27 86.48, 180.89 59.83, 233.56 -0.4 M139.89 114.59 C167.89 82.32, 193.62 50.34, 237.04 0.19 M139.2 112.77 C171.97 75.72, 207.69 36.56, 238.46 0.9 M147.25 111.18 C168.15 86.8, 189.25 60.79, 245.71 0.87 M146.39 113.98 C165.58 88.95, 187.51 65.68, 242.86 -0.98 M152.09 114.3 C172.25 90.96, 191.64 65.76, 250.65 -1.28 M150.59 112.62 C176.65 83.82, 202.73 53.22, 248.45 -0.59 M156.88 113.74 C183.44 85.98, 207.22 57.26, 256.46 -1.2 M156.92 112.43 C179.31 87.74, 202.54 60.64, 254.24 0.92 M160.7 112.22 C188.21 80.08, 219.44 46.79, 258.92 1.55 M161.85 113.35 C186.14 87.13, 209.29 60.31, 258.86 -0.1 M168.57 112.3 C192.63 84.4, 219.71 55.99, 264.31 -0.33 M165.94 113.51 C206.03 68.23, 244.33 22.17, 264.21 -0.82 M172.25 113.34 C207.45 74.4, 240.61 36.78, 268.21 1.1 M171.06 114.31 C205.19 75.39, 239.1 35.28, 269.74 0.14 M175.55 114.4 C211.94 76.41, 243.65 41.09, 274.82 -2.08 M177.07 112.41 C197.66 87.57, 221.42 61.8, 276.12 -0.32 M183.16 115.22 C209.14 79.76, 237.98 50.56, 279.78 1.35 M183.1 112.79 C220.06 69.82, 257.95 27.02, 281.46 0.33 M185.3 111.9 C209.8 86.53, 231.78 59.93, 285.46 -1.4 M187.56 113.52 C227.7 66.75, 265.46 22.43, 287.07 -0.79 M193.79 114.04 C222.51 78.77, 250.06 46.7, 291.8 -0.1 M192.67 113.04 C227.35 74.55, 261.63 34.71, 291.64 0.13 M196.17 112.01 C229.19 80.74, 258.48 45.89, 293.63 1.61 M197.94 114.45 C221.57 86.41, 245.82 59.06, 295.02 2.82 M202.37 114.56 C227.15 84.62, 248.27 60.07, 294.13 10.22 M203.24 113.26 C233.09 80.55, 261.03 47.72, 295.03 7.97 M207.47 111.8 C242.49 76.08, 277.08 33.74, 296.05 14.72 M209.04 113.49 C228.59 92.5, 249.11 69.63, 295.13 13.75 M215.06 112.13 C237.66 85.07, 266.44 57.09, 296.68 18.58 M214.1 112.61 C242.86 79.18, 273.15 44.88, 294.79 20.88 M220.04 113.17 C241.83 86.86, 266.88 60.41, 294.42 24.94 M219.69 113.65 C239.43 88.63, 259.07 65.97, 294.45 25.88 M223.92 114.7 C249.47 87.92, 269.68 61.38, 295.62 31.56 M225.32 114.19 C243.87 88.9, 263.66 66.93, 295.75 33.11 M229.65 113.61 C249.6 90.19, 269.84 71.45, 293.19 40.45 M228.97 114.4 C245.55 96.13, 259.16 79.18, 294.61 38.57 M236.92 112.81 C257.51 86.69, 280.35 61.79, 296.75 45.12 M234.77 114.06 C249.6 98.39, 262.9 81.62, 294.73 44.14 M240.97 112.21 C255.84 97.43, 268.07 83.46, 296.67 51.75 M241.28 112.64 C262.71 88.46, 284.39 64.65, 294.05 50.9 M247.92 113.6 C261.04 97.69, 275.12 82.46, 296.76 54.84 M245.13 112.24 C260.76 98.61, 272.66 82.62, 294.86 55.89 M249.57 111.66 C266.87 95.68, 280.32 81.7, 295.09 62.2 M251.31 113.74 C262.79 101.62, 273.44 88.38, 295.01 63.16 M258.71 114.8 C266.8 100.33, 277.27 87.97, 296.61 70.61 M256.85 113.7 C267.57 100.14, 277.88 89.22, 293.93 68.5 M259.93 112.22 C270.94 104.99, 274.37 96.38, 293.27 75 M261.06 114.51 C270.21 102.36, 280.27 93.68, 295.19 74.81 M268.96 114.74 C278.29 99.21, 288.29 89.17, 294.12 79.67 M267.21 113.35 C277.95 102.06, 288.37 89.82, 293.96 82.3 M271.44 113.78 C280.23 105.09, 288.07 95.11, 295.93 87.94 M272.81 114.24 C279.31 106.98, 285.4 98.13, 296.09 86.31 M278.27 114.32 C282.65 106.83, 289.91 100.69, 294.04 93.12 M277.27 113.07 C283.83 105.87, 290.36 98.94, 294.32 93.32 M284.25 113.77 C287.48 110.38, 291.39 104.86, 293.2 100.14 M282.23 113.63 C287.91 108.6, 292.75 102.79, 295.29 100.69 M288.37 114.07 C291.46 110.8, 293.77 108.62, 295.94 105.21 M288.74 112.88 C289.9 111.24, 291.73 109.83, 295.25 105.42" stroke="#868e96" stroke-width="0.5" fill="none"></path><path d="M-0.23 1.39 C80.06 -0.34, 158.19 1.51, 291.79 -0.25 M293.06 -1.93 C293.92 41.9, 291.81 88.71, 291.31 110.97 M293.56 112.19 C177.41 112.31, 58.65 112.9, -0.82 111.76 M-1.28 112.44 C1.46 74.25, 0.13 37.51, -0.35 -0.17" stroke="#000000" stroke-width="1.5" fill="none" stroke-dasharray="1.5 7"></path></g><g transform="translate(620.7154846191406 538.6622924804688) rotate(0 116 12.5)"><text x="0" y="18" font-family="Virgil, Segoe UI Emoji" font-size="20px" fill="#c92a2a" text-anchor="start" style="white-space: pre;" direction="ltr">Backup elastic server 1</text></g><g stroke-linecap="round" transform="translate(579.5335998535156 677.7274932861328) rotate(0 146.37298583984375 55.80924987792969)"><path d="M0 0 C0 0, 0 0, 0 0 M0 0 C0 0, 0 0, 0 0 M-0.1 6.41 C1.09 4.81, 3.88 2.23, 4.76 -0.37 M-0.33 6.6 C2.03 3.92, 3.42 1.52, 5.06 0.19 M-1.47 12.61 C3.64 8.9, 6.44 6.33, 9.25 -0.25 M0.41 12.1 C4.16 7.65, 7.22 4.66, 10.33 -0.67 M-0.39 19.56 C3.04 12.62, 10.86 7.74, 16.35 2.29 M-1.05 17.46 C3.57 14.1, 6.59 10.66, 15.24 -0.29 M0.24 22.46 C8.01 14.49, 13.06 10.48, 22.55 -0.8 M0.02 23.25 C7.02 14.86, 14.68 7.71, 22.08 0.01 M-1.72 31.98 C7.95 24.07, 12.97 13.51, 24.49 0.67 M-0.91 31.04 C7.82 21.36, 17.98 10.54, 25.28 1.01 M-0.71 37.24 C9.53 25.4, 23.18 8.55, 31.61 -0.79 M-0.06 36.3 C9.99 24.42, 21.55 10.33, 31.67 -0.88 M0.19 43.15 C13.27 26.63, 29.2 9.12, 36.7 0.58 M-0.67 41.75 C9.36 33.73, 16.15 23.52, 36.59 0.33 M-0.65 49.62 C9.31 35.75, 18.1 27.6, 43.13 0.68 M0.41 49.68 C13.23 32.6, 27.19 18.04, 41.6 -0.88 M-0.72 53.17 C16.87 36.02, 32.21 16.87, 47.74 0.52 M-0.17 53.64 C18.13 34.83, 36.84 13.14, 46.75 0.62 M1.39 61.97 C13.01 49.25, 25 35.99, 52.09 -0.86 M-0.06 60.55 C11.87 46.77, 24.64 32.86, 52.24 -0.44 M0.72 65.45 C23.69 41.39, 47.27 11.61, 57.29 0.57 M-0.15 66.45 C16.12 47.56, 32.2 29.6, 58.67 0.32 M-0.04 73.51 C12.07 58.92, 25.14 41.29, 63.35 -1.26 M0.97 72.76 C15.63 54.95, 29.5 37.55, 64.76 -0.05 M1.58 77.74 C13.58 63.67, 27.23 48.38, 67.92 0.42 M-0.55 79.63 C18.79 58.11, 38.4 34.15, 69.55 0.27 M0.5 83.05 C24.55 55.23, 52.78 23.88, 73.68 -1.81 M0.27 84.62 C25.08 57.32, 48.18 28.6, 74.13 -1.23 M0.86 92.65 C17.82 75.08, 34.12 56.18, 79.11 1.35 M0.49 91.84 C26.88 62.38, 53.15 31.84, 79.86 0.79 M0.72 99.73 C28.57 64.41, 60.23 26.26, 85.79 0.84 M-0.76 98.63 C22.94 71.04, 46.48 42.53, 84.1 0.43 M0.11 104.63 C33.64 64.28, 67.42 24.45, 89.24 0.22 M0.3 102.93 C26.89 74.22, 50.89 44.55, 90.4 0.67 M-0.82 110.06 C26.11 81.13, 49.2 51.59, 94.24 0.58 M-0.46 109.5 C21.29 86.7, 41.52 61.82, 96.25 0.31 M2.77 112.47 C37.75 73.35, 70.59 33.4, 101.62 -0.5 M1.97 113.46 C40.92 69.86, 76.76 28.42, 101.26 0.12 M8.62 112.07 C32.38 88.46, 56.23 59.1, 107.55 -0.06 M7.37 113.34 C39.29 75.82, 70.83 39.24, 106.92 -0.26 M14.77 114.24 C40.84 83.87, 66.04 55.4, 110.43 1.25 M11.99 112.63 C49.34 72.43, 83.53 32.33, 110.8 -0.18 M18.18 115.46 C55.44 72, 91.58 30.56, 117.46 0.78 M18.73 112.79 C52.44 75.85, 86.25 37.88, 115.62 -0.26 M22.85 111.99 C51.02 83.1, 76.72 51.57, 122.79 1.12 M23.53 113.99 C58.89 72.37, 95.01 31.38, 122.72 -0.1 M26.56 114.8 C59.19 81.71, 85.96 45.88, 127.59 -0.72 M27.6 113.2 C49.14 88.85, 71.1 65.25, 126.6 1.04 M32.21 114.54 C62.87 80.74, 93.2 44.84, 132.71 -1.65 M35.12 113.19 C57.31 86.67, 78.15 61.97, 132.98 -1.05 M38.64 112.46 C73.83 75.61, 108.93 34.62, 139.49 0.49 M39.5 112.58 C67.72 80.6, 95.67 48.65, 137.97 -0.42 M43.93 113.32 C72.32 85.97, 97.29 55.24, 143.1 1.79 M45.07 112.86 C80.03 73.86, 116.64 32.2, 142.85 -1 M48.22 112.39 C73.74 88.07, 96.37 57.71, 149.3 1.3 M49.28 114.42 C78.25 80.45, 108.15 46.96, 147.26 0.5 M57.01 112.32 C77.05 89.03, 100.34 62.2, 155.8 -0.13 M54.47 113.57 C84.12 80.02, 113.32 45.58, 153.91 0.55 M60 114.15 C96.43 73.83, 133.15 32.51, 157.03 1.18 M60.05 112.63 C94.3 71.67, 130.71 31.41, 157.82 -0.11 M65.7 114.92 C96.1 80.14, 125.18 46.54, 165.52 -1.39 M65.58 113.62 C100.15 72.58, 135.51 32.19, 165.02 -0.47 M71.58 114.9 C96.98 80.73, 124.01 51.35, 168.63 0.22 M70.26 112.61 C93.49 86.69, 117.11 60.04, 169.78 -0.2 M76.11 114.8 C104.29 82.32, 130.19 50.14, 173.92 -0.36 M75.42 112.98 C108.41 75.67, 144.36 36.25, 175.33 0.35 M83.47 111.39 C104.36 87.01, 125.47 61, 181.93 1.08 M82.61 114.18 C101.8 89.16, 123.73 65.89, 179.08 -0.77 M88.31 114.51 C108.61 91, 128.14 65.65, 187.53 -1.83 M86.81 112.83 C113.05 83.83, 139.31 53.01, 185.32 -1.14 M93.1 113.95 C119.66 86.18, 143.44 57.46, 192.68 -0.99 M93.14 112.64 C115.53 87.94, 138.76 60.85, 190.46 1.12 M96.92 112.43 C124.62 80.06, 156.05 46.54, 195.8 1.01 M98.07 113.56 C122.52 87.16, 145.82 60.16, 195.73 -0.65 M104.79 112.51 C128.85 84.61, 155.93 56.2, 200.53 -0.12 M102.16 113.72 C142.25 68.43, 180.55 22.38, 200.43 -0.61 M108.47 113.55 C143.9 74.35, 177.29 36.46, 205.09 0.55 M107.28 114.52 C141.63 75.33, 175.77 34.97, 206.62 -0.41 M111.77 114.6 C148.16 76.62, 179.87 41.3, 211.04 -1.87 M113.29 112.62 C133.88 87.77, 157.64 62.01, 212.34 -0.12 M119.38 115.43 C145.54 79.75, 174.57 50.33, 216.66 0.8 M119.32 113 C156.53 69.73, 194.66 26.64, 218.33 -0.22 M122.17 111.35 C146.52 86.15, 168.35 59.73, 221.68 -1.19 M124.44 112.98 C164.31 66.51, 201.82 22.49, 223.29 -0.58 M130.01 114.25 C158.92 78.76, 186.65 46.47, 228.68 -0.65 M128.89 113.25 C163.8 74.49, 198.31 34.39, 228.52 -0.42 M133.05 111.47 C166.47 79.74, 196.15 44.41, 231.82 -0.45 M134.81 113.9 C158.77 85.49, 183.34 57.77, 233.21 0.76 M138.59 114.77 C165.14 82.68, 188.09 56.04, 237.56 2.13 M139.46 113.47 C171.65 78.11, 201.88 42.65, 238.47 -0.12 M144.34 111.25 C184.09 70.19, 223.38 22.46, 244.73 0.58 M145.92 112.94 C168.22 88.97, 191.43 62.99, 243.82 -0.38 M151.28 112.34 C179.47 78.88, 213.78 44.53, 250.61 -1.59 M150.32 112.82 C185.56 71.93, 222.41 30.08, 248.72 0.71 M156.92 112.62 C185.53 78.86, 217.17 44.82, 253.6 -1.27 M156.56 113.1 C182.17 81, 207.79 51.46, 253.63 -0.33 M160.14 114.9 C195 77.79, 224.31 40.79, 260.05 -0.69 M161.54 114.39 C187.82 79.6, 215.64 48.39, 260.18 0.87 M166.53 113.06 C196.32 78.14, 226.31 48.18, 263.53 1.41 M165.84 113.85 C190.08 86.73, 211.15 61.19, 264.94 -0.47 M173.14 113.02 C208.26 70.46, 245.49 29, 271.67 0.8 M170.99 114.27 C194.69 88.66, 216.89 61.65, 269.65 -0.18 M177.85 111.66 C204.01 84.21, 227.21 57.61, 277.5 0.64 M178.15 112.09 C217.57 67.96, 256.75 24, 274.88 -0.21 M184.14 113.81 C210.73 82.27, 238.46 51.35, 282.18 -1.55 M181.35 112.45 C210.83 83.62, 236.08 52.28, 280.29 -0.5 M185.79 111.86 C220.66 75.52, 251.52 41.52, 286.42 -0.99 M187.53 113.94 C212.95 86.86, 237.07 58.12, 286.34 -0.03 M194.93 115.01 C220.81 80.79, 248.58 48.52, 293.19 1.39 M193.07 113.91 C219.57 81.1, 246.16 51.46, 290.51 -0.72 M196.15 112.43 C221.15 89.33, 238.25 65.02, 293.13 2 M197.28 114.72 C223.53 83.09, 249.97 55.56, 295.05 1.81 M205.18 114.94 C238.33 71.21, 272.33 33.56, 293.97 6.67 M203.43 113.56 C238.56 74.39, 273.22 34.27, 293.82 9.3 M207.66 113.99 C239.19 79.59, 269.33 43.97, 295.78 14.94 M209.03 114.45 C233.95 86.72, 257.76 57.48, 295.95 13.31 M214.49 114.53 C242.14 81.12, 272.03 48.94, 293.9 20.12 M213.49 113.28 C242.29 80.25, 271.51 47.21, 294.18 20.32 M220.62 114.01 C242.9 88.25, 266.6 59.87, 293.53 26.41 M218.36 113.85 C248.89 80.26, 279.08 45.27, 295.86 27.03 M224.36 115.27 C251.41 84.86, 276.49 56.95, 296.58 31.88 M225.09 112.89 C241.5 93.25, 259.05 74.45, 295.19 32.32 M230.21 113.54 C254.78 88.81, 276.36 62.72, 296.25 38.14 M229.17 114.11 C245.45 96.96, 259.83 79.62, 294.23 39.07 M236.18 113.29 C255.42 89.77, 278.82 65.3, 295.23 45.49 M235.9 113.18 C251.41 93.48, 269.62 75.04, 294.46 44.47 M240.56 115.24 C259.85 92.08, 276.93 71.41, 293.69 50.19 M240.61 113.85 C255.14 96.1, 271.29 78.86, 295.25 51.23 M245.27 113.27 C256.85 100.02, 270.5 85.84, 294 56.07 M246.36 112.88 C255.76 102.03, 267.02 88.79, 295.91 56.43 M250.67 113.35 C264.6 94.9, 281.38 78.86, 293.52 63.5 M250.17 114.15 C266.79 94.78, 280.88 77.83, 294.94 62.5 M254.84 114.5 C271.19 99.44, 279.58 83.17, 293.26 69.07 M256.73 113.67 C270.15 95.8, 285.28 79.9, 294.08 70.05 M260.45 111.71 C273.97 102.59, 283.87 89.63, 293.99 74.81 M262.62 113.57 C271.42 101.57, 283.93 89.66, 294.8 75.09 M266.02 112.88 C276.49 104.03, 283.76 95.79, 294.3 83.31 M268.04 113.19 C277.01 100.36, 288.59 88.85, 295.8 81.37 M272.74 113.76 C276.43 106.19, 283 100.21, 297.27 87.48 M273.03 113.08 C281.17 102.4, 290.93 92.86, 296.1 86.14 M279.83 114.89 C284.7 106.88, 290.51 99.7, 293.29 93.45 M277.15 114.03 C282.38 108.18, 287.27 103.22, 295.22 94.17 M283.24 112.62 C286.36 109.65, 289.14 105.85, 294.74 98.39 M283.68 113.16 C285.43 110.72, 288.02 107.42, 294.31 99.56 M287.9 112.33 C291.33 110.71, 291.36 108.41, 294.59 105.25 M288.14 112.91 C290.56 110.79, 293.08 108.13, 295.29 105.71" stroke="#868e96" stroke-width="0.5" fill="none"></path><path d="M-1.11 0.17 C79.65 -0.8, 159.25 0.66, 294.05 -0.5 M293.98 -0.35 C293.28 24.08, 291.09 46.44, 291.11 112.84 M292.88 112.62 C189.39 111.12, 84.45 111.78, -0.43 111.4 M-0.34 111.42 C1.1 67.56, -2.28 25.86, 1.36 0.43" stroke="#000000" stroke-width="1.5" fill="none" stroke-dasharray="1.5 7"></path></g><g transform="translate(619.3129577636719 719.9026489257812) rotate(0 118 12.5)"><text x="0" y="18" font-family="Virgil, Segoe UI Emoji" font-size="20px" fill="#c92a2a" text-anchor="start" style="white-space: pre;" direction="ltr">Backup elastic server n</text></g><g stroke-linecap="round"><g transform="translate(727.6639099121094 626.8783569335938) rotate(0 0.25179010635918075 17.501829084381484)"><path d="M0.21 -0.52 C0.39 5.54, 0.27 29.6, 0.2 35.52" stroke="#c92a2a" stroke-width="4.5" fill="none" stroke-dasharray="1.5 10"></path></g></g><g stroke-linecap="round"><g transform="translate(377.4081556512025 298.5759432535617) rotate(0 96.54201235668825 124.24252162709402)"><path d="M0.03 -0.46 C32.39 40.89, 160.55 207.58, 193.05 248.94" stroke="#e67700" stroke-width="4.5" fill="none" stroke-dasharray="1.5 10"></path></g><g transform="translate(377.4081556512025 298.5759432535617) rotate(0 96.54201235668825 124.24252162709402)"><path d="M166.9 231.37 C173.29 238.02, 176.48 239.34, 194.17 247.36" stroke="#e67700" stroke-width="4.5" fill="none" stroke-dasharray="1.5 8"></path></g><g transform="translate(377.4081556512025 298.5759432535617) rotate(0 96.54201235668825 124.24252162709402)"><path d="M183.11 218.79 C186.22 228.06, 186.04 232, 194.17 247.36" stroke="#e67700" stroke-width="4.5" fill="none" stroke-dasharray="1.5 8"></path></g></g><g stroke-linecap="round"><g transform="translate(374.67681355919217 290.9087606964632) rotate(0 100.308333487364 226.54892214922796)"><path d="M-1.03 0.64 C32.54 75.96, 168.18 377.12, 201.64 452.45" stroke="#e67700" stroke-width="4.5" fill="none" stroke-dasharray="1.5 10"></path></g><g transform="translate(374.67681355919217 290.9087606964632) rotate(0 100.308333487364 226.54892214922796)"><path d="M181.83 432.43 C187.24 436.39, 194.33 445.91, 199.8 450.97" stroke="#e67700" stroke-width="4.5" fill="none" stroke-dasharray="1.5 8"></path></g><g transform="translate(374.67681355919217 290.9087606964632) rotate(0 100.308333487364 226.54892214922796)"><path d="M200.56 424.05 C199.96 430.55, 201 442.78, 199.8 450.97" stroke="#e67700" stroke-width="4.5" fill="none" stroke-dasharray="1.5 8"></path></g></g><g transform="translate(359.7713928222656 445.7770996093749) rotate(289.79389252681915 119.500635986328 16.690032958984375)"><text x="0" y="24.38006591796872" font-family="Virgil, Segoe UI Emoji" font-size="26.704052734374955px" fill="#000000" text-anchor="start" style="white-space: pre;" direction="ltr">only backup writes</text></g><g transform="translate(136.4340499526877 389.54791688751675) rotate(296.64007945730566 99 16.5)"><text x="0" y="24" font-family="Virgil, Segoe UI Emoji" font-size="26.704052734374955px" fill="#000000" text-anchor="start" style="white-space: pre;" direction="ltr">reads &amp; writes</text></g><g stroke-linecap="round" transform="translate(584.6050415039062 334.0117159908584) rotate(0 146.37298583984375 55.80924987792969)"><path d="M0 0 C0 0, 0 0, 0 0 M0 0 C0 0, 0 0, 0 0 M-0.23 6.11 C1.86 3.59, 3.6 2.02, 5.63 -0.18 M-0.22 6.35 C0.91 4.86, 1.81 3.92, 4.97 0.33 M-1.25 11.68 C3.49 8.02, 5.62 6.44, 10.9 0.44 M0.75 11.43 C3.69 7.63, 8.77 3.67, 10.86 -0.54 M-1.47 19.06 C5.5 11.1, 13.87 6.03, 17.2 -1.42 M0.45 18.17 C5.06 12.92, 10.52 5.74, 16.43 -0.41 M-0.99 24.22 C5.37 17.95, 10.6 12.04, 19.97 -1.22 M0.79 24.26 C7.07 17.83, 11.52 10.19, 21.31 0.67 M0.03 30.12 C6.64 22.43, 11.56 17.42, 24.73 -1.59 M0.79 31.26 C7.34 21.19, 14.53 12.57, 26.18 1.27 M-1.81 37.11 C9.94 22.92, 18.8 12.42, 31.33 -0.15 M0.22 37.16 C10.01 26.74, 19.06 15.82, 31.58 0.33 M-1.18 40.66 C12.3 32.05, 22.02 18.15, 35.14 0.31 M-0.37 41.76 C13.88 28.36, 27.78 11.42, 36.48 0.27 M0.47 49.32 C11.96 35.16, 25.78 18.53, 42.7 1.39 M0.17 48.04 C13.9 33.19, 25.99 19.61, 43.38 0.12 M1.82 55.02 C15.47 35.96, 32.23 17.48, 48.83 -1.29 M0 54.11 C12.7 41.33, 23.01 26.96, 46.87 0.77 M-1.15 62.76 C10.7 48.82, 23.83 33.84, 52.23 -0.44 M0.9 60.44 C16.81 41.11, 34.74 21.76, 52.68 0.08 M-0.24 68.91 C13.03 53.15, 23.46 37.85, 56.64 0.54 M0.58 67.73 C13.81 53.26, 26.45 39.21, 58.21 0.15 M1.42 71.13 C15.17 53.48, 33.67 37.9, 62.45 1.11 M0.63 72.38 C16.85 53.25, 36.22 33.59, 63.68 0.44 M1.74 78.28 C18.56 53.94, 41.56 32.63, 67.84 1.33 M0.29 79.97 C14.81 64.14, 29.29 47.74, 68.61 1.01 M-1.31 84.72 C20.42 61.87, 39.59 41.15, 76.38 -0.65 M0.86 85.1 C17.95 65.99, 34.46 45.73, 74.92 -0.33 M-0.63 91.97 C27.73 60.92, 52.19 31.18, 78.16 1.16 M0.34 90.67 C29.81 57.34, 56.91 25.54, 79.48 -0.8 M-1.01 99.09 C21.45 75.34, 39.34 53.18, 85.44 -1.87 M-0.29 97.79 C30.99 63.63, 62.44 26.82, 85.17 0.47 M1.32 104.57 C30.12 66.21, 62.38 30.36, 89.74 0.69 M0.9 103.16 C23.63 77.99, 44.36 53.39, 89.48 -0.26 M-0.97 108.15 C31.87 70.73, 66.84 30.6, 97.5 -0.11 M0.55 110.62 C37.76 67.02, 72.4 25.51, 95.52 -0.27 M2.68 115 C38.42 75.72, 70.3 37.62, 99.17 1.11 M2.4 112.7 C24.81 86.52, 49.16 59.01, 100.6 0.9 M7.2 112.3 C30.52 84.75, 53.05 58.23, 104.86 1.61 M7.26 112.92 C35.14 79.75, 64.57 45.28, 105.31 0.57 M11.57 111.45 C51.7 70.56, 89.53 24.98, 109.47 0.2 M12.12 113.47 C46.54 74.18, 82.23 32.43, 112.06 0.17 M19.84 112.59 C50.93 78, 78.95 41.21, 115.63 -0.4 M18.55 113.34 C45.1 84.43, 70.08 53.98, 115.52 1.1 M25.45 114.04 C54.83 75.33, 88.49 38.03, 122.12 0.29 M22.54 113.28 C44.85 86.87, 68.53 60.5, 122.41 0.24 M28.39 113.88 C53.39 85.06, 79.88 54.22, 128.29 -1.54 M29.03 112.98 C61.8 73.09, 95.95 34.35, 127.39 -0.64 M34.76 111.62 C67.58 75.5, 97.74 39.58, 133.01 0.28 M34.96 112.28 C65.4 77.91, 96.46 43.85, 133.44 -0.97 M37.99 113.81 C75.66 68.69, 114.94 28.83, 135.8 -0.38 M39.87 114.37 C72.58 75.47, 106.21 37.33, 138.45 -0.12 M46.38 111.63 C71.48 85.62, 92.83 54.34, 144.48 -0.38 M44.94 112.91 C70.3 80.84, 97.31 50.44, 142.24 -0.31 M48.25 114.59 C88.13 67.57, 125.7 23.07, 148.23 -1.67 M49.55 113.28 C81.56 74.75, 116.52 35.63, 147.18 0.67 M55.59 112.06 C90.48 73.29, 122.04 36.91, 153.3 -1.67 M56.35 113.76 C76.63 89.33, 97.81 63.56, 153.19 0.57 M61.18 114.99 C85.53 83.77, 110.54 54.55, 160.07 0.39 M59.81 112.7 C98.42 68.86, 137.46 24.59, 158.35 -0.07 M65.5 114.21 C100.42 76.45, 133.34 39.38, 162.7 1.01 M64.65 114.44 C90.12 83.2, 116.74 55.01, 163.93 -0.76 M69.24 114.34 C106.66 74.18, 140.03 33.22, 170.26 2.15 M71.67 112.81 C94.66 85.26, 119.04 57.55, 168.99 0.12 M77.61 115.69 C103.81 82.57, 134.91 49.03, 174.32 0.78 M75.59 114.51 C108.9 74.67, 142.21 36.65, 175.4 0.5 M83.35 112.55 C111.09 80.36, 135.56 51.1, 178.15 -1.45 M81.45 113.05 C118.8 69.69, 156.3 27.39, 180.43 -0.13 M87.86 114.92 C108.38 91.07, 127.83 66.42, 184.26 -0.63 M87.19 113.99 C107.39 90.08, 128.41 65.33, 185.8 0.37 M92.83 114.06 C122.11 80.11, 150.05 47.31, 191.56 -0.92 M92.72 114.05 C131.4 69.3, 168.96 24.84, 190.27 0.06 M97.33 112.15 C120.03 86.56, 145.79 60.96, 195.03 -0.96 M96.45 114.38 C125.06 82.32, 153.05 52.77, 196.64 0.06 M101.47 111.9 C128.88 84.51, 151.69 58.4, 202.74 -0.21 M102.37 113.67 C141.83 68.14, 179.87 23.42, 200.4 -0.22 M107.5 114.18 C126.8 90.88, 147.7 64.29, 207.6 -1.37 M108.62 113.4 C138.85 76.15, 171 39.39, 206.69 0.05 M115.47 111.65 C138.67 84.14, 163.24 56.55, 212.37 -0.71 M114.53 112.98 C136.6 85.77, 160.63 58.67, 210.98 0.35 M120.32 114.37 C150.82 74.79, 181.05 41.54, 217.37 1.52 M119.23 112.98 C159.13 69.04, 197.59 24.06, 218.01 -0.01 M123.5 111.45 C144.82 88.31, 166.6 66.13, 221.57 -1.24 M124.65 112.28 C151.23 80.65, 180.27 48.95, 222.46 -0.71 M130.14 112.66 C158.24 83.09, 184.63 47.71, 230.19 -0.31 M130.13 113.28 C161.07 76.78, 194.27 39.28, 227.94 -1.23 M136.63 114.03 C165.03 79.8, 192.49 49.19, 231.89 1.93 M135.44 113.08 C156.77 88.03, 177.58 63.16, 233.57 0.34 M139.78 115.52 C172.95 76.94, 205.04 36.16, 237.67 -1.61 M139.39 112.67 C161.2 90.02, 180.68 66.27, 238.43 1.25 M144.4 114.63 C168.08 84.78, 196.13 55.23, 245.33 -0.88 M144.88 114.12 C169.33 86.05, 192.74 57.02, 243.33 -0.51 M148.48 112.02 C173.82 84.7, 195.83 58.46, 247.84 1.22 M149.43 113.75 C181.05 77.73, 212.82 41.89, 248.7 1.26 M154.77 113.1 C186.13 74.22, 220.21 36.1, 256.32 -0.82 M156.26 113.33 C186.1 78.4, 216.69 42.28, 255.01 0.9 M159.92 113.76 C188.24 79.85, 216.54 50.1, 261.19 -1.44 M160.89 113.31 C197.57 71.04, 233.59 28.34, 259.29 0.08 M166.13 113.84 C200.13 74.43, 233.65 35.09, 263.74 1.54 M166.14 113.9 C192.07 85.51, 215.46 57.3, 264.2 -1.02 M170.23 114.92 C205.19 77.42, 236.02 39.31, 269.31 0.63 M170.73 114.39 C201.33 77.7, 232.55 42.02, 270.64 -0.51 M175.34 113.8 C214.22 75.21, 244.99 35.15, 274.89 0.19 M176.35 112.21 C197.82 87.44, 219.34 62.58, 274.75 0.37 M183.97 112.24 C210.27 80.13, 238.37 49.53, 282.23 2.19 M182.18 114.24 C213.1 78.39, 242.29 44.2, 280.51 0.47 M189 115.26 C210.77 83.73, 238.26 57.88, 285.51 -0.31 M187.35 114.63 C222.87 73.61, 257.11 33.62, 286.79 -0.11 M194.12 113.03 C220.33 82.5, 245.53 55.5, 292.42 -1.42 M192.75 114.32 C225.4 77.84, 256.65 41.34, 291.93 -0.79 M198.15 114.78 C231.83 74.86, 268.18 35.39, 293.83 1.4 M198.86 114.46 C221.03 86.67, 244.54 59.66, 294.78 2.87 M202.12 115.14 C229.46 83.74, 253.73 56.93, 295.55 10 M204.22 114.32 C236.96 75.45, 268.21 38.07, 293.97 9.43 M210.28 111.78 C227.73 92.34, 247.92 69.91, 293.89 14.56 M207.91 114.51 C227.94 89.96, 249.2 68.03, 294.84 14.14 M213.84 115.01 C232.12 92.93, 246.25 73.23, 292.91 20.37 M214.68 114.14 C234.77 89.77, 255.16 66.57, 294.17 21.25 M219.98 113.45 C237.45 92.42, 256.88 69.97, 295.3 25.59 M219.46 114.04 C249.84 79.92, 278.43 46.14, 294.5 25.39 M223.58 111.62 C250.93 82.37, 277.74 52.05, 295.54 30.95 M224.47 113.91 C242.53 93.4, 260.35 73.63, 294.68 32.76 M228.28 115.57 C253.19 85.43, 279.22 57.13, 294.87 38.05 M229.74 113.54 C248.02 91.84, 266.55 71.91, 294.34 39.08 M234.1 114.53 C257.62 87.81, 281.83 62.44, 293.67 43.31 M236.23 113.97 C247.98 99.19, 261.68 84.31, 295.65 45.02 M238.63 114.48 C256.37 95.35, 274.36 75.44, 295.87 51.8 M240.3 112.7 C252.07 98.69, 265.07 85.34, 295.23 51.64 M244.58 111.84 C262.73 97.16, 275.99 78.07, 295.94 55.6 M246.87 112.87 C259.19 99.75, 270.86 87.52, 294.51 56.33 M252.95 115.06 C262.07 98.76, 272.05 86.59, 296 63.5 M251.93 114.44 C261.79 100.45, 272.84 88.22, 294.33 63.98 M258.63 114.24 C264.07 102.92, 270.99 96.46, 292.79 71.29 M257.61 113.39 C265.11 104.09, 274.59 94.1, 295.32 68.95 M263.56 114.78 C271.46 101.53, 285.52 86.55, 294.08 75.67 M260.73 112.91 C270.73 102.75, 280 90.94, 295.75 74.47 M268.32 114.97 C276.77 103.16, 282.82 96.43, 295.06 80.14 M267.9 112.54 C276.56 102.89, 284.8 91.59, 295.38 82.12 M273.26 111.66 C277.29 107.44, 281.39 101.3, 293.34 85.34 M272.06 113.45 C277.28 108.09, 282.89 101.35, 295.86 87.71 M278.13 113.83 C280.49 109.67, 285.92 103.06, 294.05 94.72 M277.53 113.53 C282.07 108.01, 287.56 102.23, 295.31 92.54 M283.21 112.39 C286.31 107.89, 289.8 103.95, 293.01 100.78 M282.62 112.73 C285.01 110.91, 289.22 107.53, 294.7 99.32 M288.81 113.13 C289.98 111.66, 291.81 107.99, 295.66 106.49 M288.56 113.44 C290.26 111.32, 292.68 108.62, 295.42 105.45" stroke="#fab005" stroke-width="0.5" fill="none"></path><path d="M0.5 1.04 C91.98 -1.64, 183.68 -1.53, 293.49 0.91 M-0.39 -0.1 C101.86 2.57, 201.98 1.8, 292.59 0.26 M292.25 -0.81 C295.1 33.38, 291.53 62.78, 293.46 111.31 M293.47 0.04 C292.41 34.74, 292.64 67.97, 293.13 112.27 M291.52 112.63 C190.97 113.15, 87.78 110.9, -1.44 110.87 M292.52 112.07 C208.54 110.97, 123.6 110.3, -0.66 111.19 M-1.77 111.97 C1.45 72.66, 0.53 37.56, -0.99 -1.96 M0.89 110.87 C-1.28 71.48, -0.98 32.18, 0.39 -0.78" stroke="#e67700" stroke-width="1" fill="none"></path></g><g transform="translate(696.3529663085938 378.16795073206936) rotate(0 29.5 12.5)"><text x="0" y="18" font-family="Virgil, Segoe UI Emoji" font-size="20px" fill="#000000" text-anchor="start" style="white-space: pre;" direction="ltr">Kafka</text></g><g stroke-linecap="round"><g transform="translate(374.7852715951668 291.0833516228439) rotate(0 101.43374374912582 47.18196592890311)"><path d="M-0.6 -0.13 C33.46 15.78, 169.48 78.34, 203.47 94.26 M1.28 -1.24 C35.24 14.94, 168.86 79.83, 202.38 95.6" stroke="#e67700" stroke-width="4" fill="none"></path></g><g transform="translate(374.7852715951668 291.0833516228439) rotate(0 101.43374374912582 47.18196592890311)"><path d="M172.31 92.23 C178.58 92.88, 187.07 95.5, 202.41 96.36 M172.87 92.13 C177.83 92.58, 185.26 94.5, 201.55 95.56" stroke="#e67700" stroke-width="4" fill="none"></path></g><g transform="translate(374.7852715951668 291.0833516228439) rotate(0 101.43374374912582 47.18196592890311)"><path d="M181.18 73.72 C185.28 78.47, 191.79 85.23, 202.41 96.36 M181.73 73.62 C184.66 77.93, 190.23 83.74, 201.55 95.56" stroke="#e67700" stroke-width="4" fill="none"></path></g></g><g stroke-linecap="round"><g transform="translate(882.9476580213714 394.3555426251256) rotate(0 105.6483499182765 -58.70410612309729)"><path d="M1.18 -0.33 C36.43 -19.88, 175.95 -97.56, 210.95 -117.08 M0.34 -1.55 C35.45 -20.92, 174.77 -96.45, 209.76 -115.59" stroke="#e67700" stroke-width="4" fill="none"></path></g><g transform="translate(882.9476580213714 394.3555426251256) rotate(0 105.6483499182765 -58.70410612309729)"><path d="M189.36 -93.88 C194.74 -99.37, 199.12 -106.47, 209.53 -115.44 M190.76 -93.53 C197.74 -102.55, 205.91 -110.95, 209.88 -115.27" stroke="#e67700" stroke-width="4" fill="none"></path></g><g transform="translate(882.9476580213714 394.3555426251256) rotate(0 105.6483499182765 -58.70410612309729)"><path d="M179.54 -111.9 C187.45 -112.93, 194.31 -115.46, 209.53 -115.44 M180.95 -111.56 C191.5 -113.82, 203.4 -115.38, 209.88 -115.27" stroke="#e67700" stroke-width="4" fill="none"></path></g></g><g stroke-linecap="round" transform="translate(1001.3491516113281 162.69090270996094) rotate(0 146.37298583984375 55.80924987792969)"><path d="M0 0 C0 0, 0 0, 0 0 M0 0 C0 0, 0 0, 0 0 M-0.96 6.76 C0.53 4.77, 2 2.44, 5.56 -0.29 M-0.51 6.19 C1.91 3.87, 3.77 1.72, 4.77 0.23 M-1.23 10.95 C4.41 8.8, 8.41 4.45, 9.05 0.97 M0.66 12.66 C2.34 8.96, 4.32 6.17, 10 -0.07 M0.21 17.48 C6.77 14.77, 7.77 6.13, 16.82 -1.3 M0.46 19.03 C3.8 13.37, 7.41 8.82, 15.23 0 M-1.33 22.58 C3.99 18.35, 9.37 10.69, 21.09 -0.38 M-0.62 24.37 C7.58 16.95, 13.71 8.99, 21.9 -0.4 M-1.02 31.61 C9.02 17.1, 21.97 7.48, 26.02 -0.39 M0.06 29.51 C11.25 17.82, 21.3 7.3, 25.67 1.14 M-1.24 38.56 C11.27 24.94, 21.86 12.41, 31.83 0.4 M-0.64 37.65 C10.85 23.38, 22 11.36, 31.55 0.11 M-1.81 41.07 C10.28 28.17, 20.29 17.97, 35.23 -1.25 M-0.05 42.84 C10.52 31.26, 19.18 21.54, 36.99 0.14 M0.1 49.53 C7.94 39.97, 20.05 26.15, 42.77 1.4 M0.86 49.26 C11.51 35.24, 22.59 22.81, 42.57 -1 M-1.37 54.82 C12.14 43.54, 20.55 32.35, 47.58 2 M-0.53 53.98 C17.53 35.6, 33.96 14.28, 47.25 -0.36 M0.03 61.24 C17.66 41.07, 39.23 18.66, 54.74 0.05 M0.82 60.03 C18.03 39.84, 36.01 19.08, 53.04 0.24 M-0.65 66.17 C18.01 45.42, 36.89 23.79, 58.09 1.84 M-0.4 67.13 C19.55 44.45, 40.78 21.2, 58.28 -0.78 M0.47 73.3 C19.55 50.9, 40.7 25.23, 65.49 -0.62 M0.66 73 C15.43 53.7, 32.54 35.93, 64.31 -0.71 M-1.74 79.78 C19.93 56.84, 42.14 33.22, 67.69 -0.65 M0.56 79.66 C24.31 52.8, 47 25.35, 68.72 0.44 M1.2 85.91 C28.26 53.72, 59.15 19.7, 75.63 -1.99 M0.57 85.15 C25.54 56.02, 51.35 26.13, 74.05 0.04 M-1.78 90.13 C16.44 72.57, 32.99 52.51, 81.24 -1.81 M0.94 91.64 C28.83 58.6, 58.49 25.35, 79.02 -0.2 M1.31 98.62 C19.91 76.13, 36.95 53.49, 86.73 0.16 M-0.1 97.16 C32.91 58.31, 67.11 19.33, 85.22 -0.16 M-0.35 104.57 C30.66 66.69, 65.88 26.71, 89.46 -1.37 M-0.76 103.88 C30.13 69.2, 59.48 36.75, 90.39 -0.27 M-0.29 109.31 C30.55 77.73, 55.87 43.12, 95.22 1.63 M0.75 109.42 C22.89 82.78, 45.8 55.65, 95.07 0.5 M3.84 111.77 C31.3 82.58, 56.65 49.53, 99.02 -0.48 M2.27 113.34 C26.29 83.72, 51.36 55.3, 99.87 -0.34 M8.5 112.41 C31.52 83.96, 55.13 54.49, 106.46 -0.17 M6.28 113.22 C42.87 74.02, 77.29 33.47, 106.16 -0.73 M13.59 112.7 C42.13 75.41, 73.35 43.35, 110.48 0.3 M12.69 113.17 C37 87.19, 61.23 59.71, 111.29 0.93 M19.17 115.02 C43.39 83.33, 71.73 52.64, 116.06 0.5 M17.93 113.88 C42.74 85.12, 66.89 56.92, 116.67 0.61 M23.49 113.3 C51.03 84.02, 80.04 48.85, 120.3 -0.97 M24.38 112.34 C55.92 78.38, 85.41 43.37, 122.26 -0.14 M27.79 114.07 C67.38 68.31, 106.69 25.5, 126.51 0.73 M27.61 112.93 C55.21 80.79, 82.35 48.62, 126.07 0.18 M33.6 111.29 C69.35 72.57, 109.52 29.57, 130.85 -1.66 M35.07 113.43 C66.31 75.86, 100.36 37.64, 133.21 0.71 M39.6 115.34 C71.24 73.53, 106.48 36.46, 137.21 -0.55 M39.31 114.07 C66.31 81.89, 93.96 49.75, 138.14 0.35 M42.87 111.96 C71.7 79.3, 101.69 51, 144.41 -0.55 M44.74 113.51 C79.57 74.85, 113.44 35.61, 142.36 0.7 M51.75 115.18 C82.87 77.64, 111.19 45.08, 149.14 0.45 M48.8 113.95 C76.35 81.99, 104.25 49.36, 148.63 0.19 M55.15 114.23 C80.08 83.11, 103.82 54.74, 153.17 0.2 M54.7 113.08 C93.41 68.34, 131.3 24.52, 154.71 -1 M59.31 114.53 C79.5 91.74, 102.67 66.97, 158.21 -0.92 M60.66 113.18 C99.96 66.78, 137.97 23.3, 159.56 1.21 M64.54 113.34 C86.89 89.07, 105.25 65.58, 165.21 0.99 M65.91 113.86 C93.8 79.74, 122.47 48.12, 165.08 -0.27 M69.24 112.95 C108.1 69.04, 145.75 28.21, 169.19 0.32 M71.25 113.33 C107.05 72.8, 143.79 31.6, 170.28 0.4 M76.03 111.88 C106.7 82.4, 133.78 49.6, 174.53 -1.15 M76.55 114.74 C104.59 79.46, 133.12 46.89, 175.07 -1.03 M82.4 114.55 C107 85.03, 133.99 52.7, 181.8 0.72 M81.76 113.9 C120.97 71.52, 157.11 28.67, 180.42 -0.82 M87.54 114.27 C114.2 81.83, 141.09 51.32, 187.04 1.37 M87.18 113.34 C106.71 90.01, 126.74 67.85, 186.1 -0.26 M91.59 114.09 C128.5 69.51, 167.26 27.05, 192.63 -1.56 M93.15 113.36 C118.61 81.28, 145.48 51.03, 190.9 0.43 M98.54 113.8 C131.87 74.52, 167.06 33.64, 194.54 0.75 M96.29 114 C124.21 83.76, 150.33 52.86, 196.35 -0.96 M103.48 114.87 C136.8 72.54, 174.66 29.67, 201.19 -0.78 M103.18 114.13 C136.54 77.18, 169.45 39.47, 200.94 -0.52 M107.43 115.34 C142.12 71.44, 178.82 32.74, 208.75 -0.21 M108.65 113.47 C135.4 83.82, 162.59 51.92, 207.83 -1.21 M112.66 114.81 C140.76 82.4, 167.27 53.56, 211.92 -1.6 M113.41 113.59 C140.68 81.99, 167.85 52.35, 211.08 -0.86 M117.49 113.36 C150.28 75.42, 183.17 37.21, 219.29 -2.13 M118.35 113.98 C145.81 82.44, 172.23 51.63, 217.34 -1.12 M123.62 112.44 C151.01 84.4, 173.67 55.05, 224.12 -1.09 M124.2 113.06 C152.89 81.25, 180.73 48.26, 222.12 0.62 M130.93 113.9 C171.53 69.44, 207.68 23.69, 227.68 0.98 M129.78 114.21 C152.54 86.99, 174.63 61.51, 227.46 0.17 M136.78 112.84 C170.6 72.01, 209.11 30.93, 234.04 1.28 M135.7 112.82 C169.75 72.72, 205.19 30.65, 234.18 0.64 M138.86 112.62 C165.5 88.93, 189.58 58.37, 236.72 0.43 M140.61 114.3 C177.66 72.23, 212.69 30.26, 238.92 0.19 M146.45 113.73 C180.98 73.02, 211.65 35.89, 244.8 1.63 M144.86 113.11 C182.46 69.02, 221.19 25.22, 243.67 0.32 M151.28 112.78 C172.45 88.58, 197.53 61.65, 247.04 -0.1 M150.81 112.82 C178.22 81.64, 204.73 50.49, 248.23 1.18 M154.82 111.39 C188.28 71.42, 225.3 33.19, 256.46 1.68 M156.44 113.1 C181.16 84.29, 207.61 57.2, 254.3 0.29 M159.11 115.2 C193.25 73.87, 229.6 38.32, 259.24 1.89 M161.66 113.81 C197.17 72.43, 232.22 32.85, 258.71 -0.39 M166.04 114.71 C198.07 77.62, 225.92 44.11, 263.96 -1.27 M165.97 113.95 C198.85 75.64, 231.48 38.2, 266.09 -0.42 M172.18 112.32 C208.88 70.95, 247.43 28.09, 270.47 -1.24 M170.72 113.76 C209.96 68.77, 249.39 24.4, 270.13 0.12 M176.12 111.17 C210.13 76.74, 245.19 39.62, 275.16 -0.31 M176.8 113.73 C215.22 69.54, 253.5 25.18, 276.32 0.7 M181.23 114.17 C219.12 71.9, 256.09 29.32, 279.79 -0.55 M182.87 112.63 C219.61 70.11, 256.64 27.15, 281.09 -0.67 M186.34 113.6 C219.26 78.95, 250.37 43.13, 284.81 -0.95 M186.41 113.26 C217.02 77.3, 249.51 42.38, 286.6 0.62 M191.88 114.37 C213.83 87.73, 233.94 65.87, 290.17 -0.48 M193.25 112.79 C220.23 82.98, 246.62 53.96, 291.94 0.8 M199.87 115.16 C227.71 78.23, 260.59 42.27, 294.63 3.16 M198.05 114.02 C229.73 73.61, 264.2 35.67, 295.86 2 M202.67 112.13 C236.21 75.05, 270.15 37.53, 295.26 7.4 M204.34 114.11 C227.32 87.39, 252.07 59.03, 294.64 8.33 M207.77 111.86 C241.07 74.72, 276.65 33.78, 296.62 15.25 M207.79 113.71 C230.61 87.45, 252.87 61.84, 294.72 13.27 M215.07 114.26 C244.74 79.73, 273.34 46.25, 295.77 21.29 M214.88 112.89 C238.75 85, 263.71 56.08, 294.09 19.87 M217.72 113.55 C245.46 81.73, 276.86 48.1, 294.8 26.8 M220.16 114.24 C235.09 96.85, 250.54 78.72, 296.22 26.93 M223.43 113.16 C249.8 83.7, 276.1 53.36, 293.68 32.74 M224.93 112.87 C252.74 81.27, 280.94 49.73, 295.34 32.07 M231.27 114.69 C246.1 91.83, 265.47 74.3, 294.89 39.42 M230.49 113.47 C245.39 95.71, 261.33 78.1, 294.48 38.5 M237 112.83 C258.42 84.78, 281.33 60.47, 295.56 43.67 M234.84 112.28 C249.8 97.24, 264.29 79.69, 295.95 44.3 M241.88 112.32 C255.69 98.69, 267.1 79.58, 293.51 50.07 M239.9 114.21 C261.93 89.21, 282.11 64.84, 294.89 50.71 M245.96 114.86 C255.61 99.58, 265.62 89.93, 293.92 56.59 M246.25 112.78 C258.65 98.29, 271.89 84.18, 296.27 55.89 M252.92 112.07 C264.01 98.35, 276.88 83.31, 296.18 61.57 M250.32 113.22 C260.03 103.61, 268.66 92.48, 295.18 62.98 M255.38 112.42 C268.38 101.92, 277.48 90.14, 296.51 69.36 M257.11 112.47 C269.41 97.26, 283.95 83.27, 293.81 69.86 M263.68 114.18 C275.21 100.24, 286.93 83.1, 294.03 73.56 M261.45 114.22 C269.07 104.97, 278.1 95.26, 295.02 75.44 M267.24 112.31 C275.65 105.78, 282 95.36, 294.93 82.17 M266.66 112.93 C275.41 102.88, 283.9 94.97, 294.82 80.95 M271.34 115.47 C281.83 103.57, 288.37 91.81, 297.06 85.29 M271.81 112.89 C278.43 105.92, 285.33 97.92, 294.4 86.68 M278.44 112.88 C281.93 105.48, 287.49 99.17, 294.77 92.06 M278.43 112.19 C282.39 110.02, 285.06 105.74, 295.4 93.09 M281.18 115.16 C284.5 109.43, 287.63 108.03, 295.46 98.51 M283.64 113.8 C286.3 110.68, 287.62 108.32, 294.01 99.54 M287.68 113.59 C291.65 110.39, 292.09 107.44, 295.65 104.73 M288.93 113.39 C289.98 111.24, 292.14 109.86, 295.13 105.48" stroke="#4c6ef5" stroke-width="0.5" fill="none"></path><path d="M-0.96 1.25 C91.16 -2.47, 185.77 -0.49, 293.32 1.32 M0.34 -0.69 C102.59 -0.29, 206.43 0.37, 292.98 0.19 M293.46 -0.99 C293.19 34.97, 291.33 69.93, 291.7 110.57 M292.82 0.38 C293.62 34.1, 292.99 69, 291.77 111.83 M293.33 110.25 C185.88 110.83, 75.61 111.1, 0.11 110.24 M293.23 111.55 C199.4 112.38, 104.33 112.64, -0.31 110.99 M-0.27 110.58 C0.15 70.07, -1.32 26.26, -0.85 0.6 M0.69 112.23 C1.4 88.79, 1.24 65.76, -0.53 -0.89" stroke="#000000" stroke-width="1" fill="none"></path></g><g transform="translate(1045.0703509521486 195.70338439941406) rotate(0 99.55834167480464 19.598098754882812)"><text x="0" y="28.19619750976561" font-family="Virgil, Segoe UI Emoji" font-size="31.35695800781249px" fill="#000000" text-anchor="start" style="white-space: pre;" direction="ltr">elastic proxy</text></g><g stroke-linecap="round" transform="translate(1006.1446838378906 533.4939422607422) rotate(0 146.37298583984375 55.80924987792969)"><path d="M0 0 C0 0, 0 0, 0 0 M0 0 C0 0, 0 0, 0 0 M-0.04 5.77 C1.64 4.16, 1.67 2.85, 4.78 0.62 M-0.65 6.66 C1.07 4.72, 2.41 3.75, 5.06 0.38 M-0.38 10.89 C4.11 6.8, 9.19 3.69, 11.25 0.16 M0.31 12.81 C3.21 9.86, 4.85 6.12, 10.92 -0.13 M0.1 19.65 C7.56 12.55, 11.4 5.73, 14.56 1.3 M-0.86 18.7 C5.6 11.29, 11.32 4.85, 15.77 -0.43 M-0.43 24.04 C5.69 17.81, 13.53 7.85, 22.69 1.4 M1.24 23.56 C5.53 19.62, 9.97 13.54, 21.42 0.7 M1.62 30.06 C5.03 21.9, 13.51 15.12, 27.42 0.33 M-0.26 30.04 C7.82 22.9, 13.6 15.42, 26.09 -0.31 M-1.03 35.87 C10.28 28.81, 18.14 16.21, 32.55 -0.53 M-0.17 37.39 C9.03 26.6, 16.81 16.02, 32.86 0.33 M-0.64 42.78 C12.53 29.28, 27.1 11.88, 34.89 -1.23 M0.28 41.94 C7.72 32.46, 15.77 23.96, 37.03 0.78 M1.71 48.37 C15.38 29.77, 31.28 15.47, 41.53 -0.37 M-0.06 48.42 C13.78 32.86, 27.81 17.22, 42.77 -0.4 M0.74 54.18 C12.48 37.12, 26.99 23.86, 46.71 1.89 M-0.2 54.67 C15.46 37.19, 32.7 18.33, 48.35 0.79 M-0.23 62.68 C12.13 45.15, 27.51 28.3, 53.08 -1.3 M0.21 60.78 C20.08 39.69, 37.82 16.03, 52.9 -0.19 M-0.57 68.92 C13.26 51.57, 24.49 37.13, 56.55 1.53 M-1.06 67.74 C21.28 42.6, 43.18 18.78, 57.57 0.62 M1.68 73.77 C21.83 51.09, 40.94 27.6, 63.56 -0.93 M-0.28 72.82 C25.39 44.55, 49.14 17.29, 64.3 -0.29 M-0.03 79.04 C23.79 51.54, 45.47 23.48, 67.94 -1.84 M-0.35 79.82 C23.86 50.26, 50.05 20.86, 69.01 1.14 M1.86 85.22 C23.85 55.9, 52.94 28.6, 76.22 -1.26 M0.36 84.83 C21.51 61.02, 40.98 36.53, 74.32 0.53 M-0.16 90.41 C28.03 61.7, 52.9 31.36, 80.38 -1.2 M0.17 92.32 C25.18 64, 49.75 34.49, 78.79 0.15 M-2 95.96 C16.79 75.94, 35.01 56.25, 83.23 1.29 M-0.83 98.83 C29.96 64.21, 60.06 28.67, 85.61 -1.09 M2.09 101.73 C21.44 77.76, 40.2 54.27, 91.21 -0.9 M0.72 103.33 C20.01 80.96, 40.96 56.98, 89.85 -0.59 M-0.34 111.24 C29.41 75.25, 60.36 36.97, 95.68 -2.08 M-0.06 110.49 C35.03 69.1, 71.77 28.07, 95.12 -0.03 M2.64 113.06 C36.9 69.88, 74.51 27.48, 101.73 1.28 M1.77 113.15 C28.12 84.01, 54.93 53.51, 100.88 -0.34 M5.55 112.86 C37.42 79.09, 69.5 44.05, 105.53 1.4 M7.51 114.43 C38.65 75.49, 71.53 40.05, 107.08 0.29 M10.89 112.76 C35.13 86.51, 60.46 58.52, 111.12 0.18 M13.67 112.23 C38.29 82.86, 65 52.07, 111.41 -0.46 M17.8 115.3 C50.46 77.65, 80.89 40.31, 115.03 0.85 M17.02 113.28 C43.55 82.09, 72.32 49.91, 115.37 -0.36 M24.1 114.11 C48.57 87.16, 73.53 57.63, 122.46 1.2 M24.01 112.85 C60.45 72.29, 95.83 30.17, 122.75 0.69 M27.09 114.87 C64.53 72.3, 99.42 33.94, 125.28 0.73 M28.06 113.88 C58.89 77.71, 90.13 44.5, 127.15 0.98 M32.91 114.22 C68.66 75.75, 99.87 38.26, 132.75 -1.64 M34.18 112.92 C73.17 66.78, 112.4 22.9, 133.01 0.69 M37.29 112.72 C69.61 76.38, 102.39 39.98, 138.32 -0.65 M38.29 113.23 C76.88 70.43, 114.38 27.32, 137.87 0 M42.91 113.77 C82.06 73.12, 116 29.44, 142.9 0.26 M43.87 112.79 C72.59 81.21, 100.06 48.79, 144.08 0.06 M48.18 112.58 C87.12 69.75, 124.34 26.7, 149.75 -0.13 M49.2 113.32 C75.67 84.16, 100.99 54.21, 148.98 1.08 M56.58 115.04 C89.64 70.08, 129.35 30.81, 155.72 0.1 M56.07 112.3 C77.89 87.77, 101.83 61.38, 154.67 -0.71 M61.45 114.76 C99.16 70.71, 140.89 24.5, 158.1 1.02 M61.03 114.06 C98.29 69.11, 137.7 24.04, 158.19 1.05 M66.65 112.65 C87.65 84.92, 110.01 59.95, 165.92 1.68 M65.41 114.47 C103.51 70.32, 143.38 27.33, 165.27 -0.19 M70.68 114.18 C97.13 83.02, 126.88 50.78, 170.77 -0.85 M71.85 114.31 C94.49 86.27, 116.59 59.7, 168.53 0.19 M76.73 112.55 C100.28 85.46, 123.96 58.47, 174.11 1.38 M75.79 113.51 C107.05 77.13, 140.66 38.89, 175.19 -0.99 M83.37 114.36 C108.68 84.79, 132.83 53.05, 178.09 -1.8 M82.52 112.92 C114.26 73.62, 148.29 36.57, 179.32 -0.74 M87.35 114.57 C123.01 70.81, 156.46 31.99, 184.84 -1.82 M87.43 114.36 C124.31 68.33, 164.55 24.24, 185.51 -0.77 M90.92 113.4 C110.88 90.99, 133.26 66.57, 191.3 -0.32 M91.7 113.65 C115.83 87.8, 137.24 61.99, 191.16 0.45 M96.63 115.34 C132.72 70.99, 167.07 31.39, 196.53 -0.34 M96.52 114.65 C132.93 71.66, 167.2 32.07, 196.13 -1.23 M102.65 114 C135.81 73.01, 169.13 34.68, 200.53 0.72 M102.82 114.24 C138.72 71.25, 173.85 31.15, 200.98 0.39 M109.58 115.12 C129.67 87.43, 149.47 64.07, 207.53 -0.02 M107.51 114.45 C141.83 74.51, 176.73 34.88, 206.72 -1.12 M111.77 113.45 C138.51 83.56, 163.24 55.64, 212.82 0.03 M113.15 113.38 C150.39 72.36, 185.74 29.85, 210.98 -0.8 M120.11 111.74 C155.12 72.58, 190.95 30.24, 218.08 -2.11 M118.19 113.32 C149.73 76.92, 182.24 40.93, 217.77 -1.25 M125.39 113.64 C155.88 76.61, 187.08 43.31, 222.13 -0.07 M124.72 113.71 C161.45 72.53, 196.94 30.32, 221.66 -0.59 M129.06 114.64 C156.58 81.12, 184.86 46.17, 228.33 -1.23 M128.63 113.23 C168.82 67.38, 209.19 23.86, 227.55 0.55 M134.56 115.04 C163.63 79.42, 193.77 42.47, 231.31 0.31 M135.38 112.81 C164.02 79.31, 191.33 47.58, 232.84 -0.95 M138.14 114.85 C164.25 89.26, 187.35 61.99, 239.68 1.31 M140.18 113.64 C172.5 76, 205.41 37.13, 238.5 1.13 M144.19 114.74 C180.62 73.78, 211.09 36.07, 242.12 0.66 M145.76 112.23 C179.68 73.76, 213.81 36.27, 244.6 0.57 M152.01 114.99 C183.99 71.9, 217.68 32.81, 247.43 0.55 M150.52 114.44 C172.99 87.74, 196.95 60.35, 248.78 0.05 M155.14 112.4 C191.9 71.58, 231.2 29.43, 253.23 -1.91 M156.3 112.47 C189.82 73.88, 225.8 33.25, 254.34 -0.12 M160.19 115.26 C195.65 72.24, 234.22 31.2, 258.77 -1.63 M160.59 112.97 C186.19 84.43, 209.72 55.34, 259.43 1.07 M166.14 112.27 C192.57 82.38, 220.43 50.52, 266.21 1.27 M166.24 113.99 C189.92 87.76, 210.64 64.19, 265.77 -0.66 M171.15 111.49 C197.96 85.08, 224.95 54.43, 269.49 -1.5 M171.66 113.05 C198.77 83.32, 226.04 51.35, 269.89 0.17 M175.86 113.23 C210.97 75.94, 243.59 35.87, 275.56 0.47 M176.6 112.18 C202.9 83.83, 226.56 53.87, 275.86 0.78 M182.23 113.06 C204.44 85.05, 229.31 56.29, 281.27 1.27 M182.28 113.93 C206.49 83.68, 230.31 56.04, 280.45 -0.75 M188.19 115.46 C223.98 71.5, 267.05 25.41, 286.64 1.58 M186.54 113.16 C213.58 85.11, 238.65 56.06, 285.9 0.47 M193.71 112.98 C227.23 71.73, 264.53 30.13, 291.7 1.61 M193.29 113.31 C216.97 85.16, 241.57 56.5, 291.15 -0.8 M196.92 115.5 C230.35 77.22, 259.48 43.34, 295.79 2.31 M197.02 113.73 C220.97 88.49, 240.99 62.94, 294.52 2.39 M202.74 113.84 C225.6 88.65, 250.74 59.97, 293.06 7.31 M202.85 112.37 C223.34 89.85, 244.13 67.07, 295.63 9.15 M207.75 112.75 C236.4 80.45, 260.16 53.2, 293.66 13.27 M207.78 112.9 C228.33 89.91, 249.15 67.09, 296.02 14.27 M213.41 113.81 C233.08 90.31, 251.29 69.3, 296.7 19.95 M213.39 112.71 C232.71 91.8, 251.35 72.39, 294.5 20.34 M218.96 112.43 C245.45 80.61, 274.27 47.8, 294.86 25.31 M219.05 113.91 C248.35 80.14, 278.27 45.92, 295.12 25.94 M226.69 112.68 C238.43 95.4, 258.18 74.69, 295.19 34.47 M224.66 113.4 C251.29 81.69, 278.11 51.39, 294.47 32.73 M230.75 112.36 C249.61 94.81, 268.56 72.21, 295.76 39.42 M229.85 113.91 C245.42 95.23, 262.59 76.52, 295.64 38.22 M234.47 113.82 C259.56 84.76, 283.25 61.13, 293.76 44.16 M234.69 113.97 C256.89 87.57, 280.35 61.88, 294.8 45.02 M239.19 112.97 C260.32 88.58, 281.71 64.47, 295.59 51.93 M240.97 113.03 C252.43 100.28, 265.31 87.35, 294.65 51.15 M245.55 114.18 C260.88 96, 273.8 79.21, 295.53 54.89 M246.82 113.39 C260.7 96.59, 275.82 78.92, 295.53 55.83 M250.29 115.26 C260.26 101.39, 271.53 88.96, 294.52 61.04 M252.03 113.34 C266.37 95.2, 282.16 79.68, 295.58 63.48 M255.62 114.34 C269.58 95.89, 283.24 81.45, 294.87 67.91 M256.68 113.09 C266.26 104.53, 274.14 93.71, 293.85 69.52 M261.96 114.85 C272.93 102.35, 282.89 89.13, 294.28 73.76 M262.43 113.88 C272.38 100.96, 283.23 90.15, 295.78 74.64 M269.29 112.43 C274.61 105.37, 280.94 98.47, 294.02 82.77 M267.19 113.95 C274.61 105.01, 280.3 97.57, 295.7 82.12 M273.98 111.92 C281.67 105.38, 288.78 91.42, 295.51 88.72 M272.37 113.63 C277.96 105.75, 284.82 98.88, 294.91 86.54 M278.08 114.21 C284.33 106.1, 289.25 99.48, 293.17 91.91 M277.58 113.3 C281.09 110.16, 284.87 104.4, 294.87 92.88 M282.18 113.29 C287.89 108.46, 288.09 107.95, 295.06 98.99 M283.76 112.61 C288.06 108.87, 292.1 102.96, 295.24 99.33 M289.5 114.05 C291.23 110.48, 291.66 108.63, 295.12 104.56 M288.49 113.51 C290.86 110.31, 293.88 107.05, 294.88 105.89" stroke="#12b886" stroke-width="0.5" fill="none"></path><path d="M-0.87 0.82 C67.57 -0.04, 136.93 0.77, 291.57 1.19 M0.08 0.3 C104.2 -2.31, 209.19 -2.43, 292.64 -0.54 M293.57 0.6 C292.16 31.67, 291.59 60.17, 291.79 112.16 M293.57 0.55 C294.09 24.9, 293.2 51.57, 292.31 111.99 M291.31 111.94 C204.56 112.14, 114.09 112.15, -0.34 112.77 M292.59 111.23 C201.37 114.14, 110.64 113.48, -0.43 111.14 M-1.01 111.7 C-0.25 67.57, -1.27 27.13, -1.14 1 M-0.4 112.02 C-1.09 78.11, -0.14 43.68, 0.76 0.8" stroke="#000000" stroke-width="1" fill="none"></path></g><g transform="translate(1045.9770812988281 574.5612487792969) rotate(0 83 15.5)"><text x="0" y="22" font-family="Virgil, Segoe UI Emoji" font-size="24.156835937499984px" fill="#000000" text-anchor="start" style="white-space: pre;" direction="ltr">elastic server</text></g><g stroke-linecap="round"><g transform="translate(1143.7272114915804 277.6099036246261) rotate(0 1.4308605482445955 124.0421418992149)"><path d="M-0.63 0.58 C0 41.68, 3.04 206.11, 3.49 247.25 M1.24 -0.16 C1.83 41, 3.11 206.84, 3.1 248.24" stroke="#e67700" stroke-width="4" fill="none"></path></g><g transform="translate(1143.7272114915804 277.6099036246261) rotate(0 1.4308605482445955 124.0421418992149)"><path d="M-6.32 221.84 C-5.99 227.33, -2.88 236.16, 2.04 247.88 M-8.05 220.33 C-4.53 226.35, -3.17 231.87, 2.48 249.04" stroke="#e67700" stroke-width="4" fill="none"></path></g><g transform="translate(1143.7272114915804 277.6099036246261) rotate(0 1.4308605482445955 124.0421418992149)"><path d="M14.2 221.75 C8.88 227.16, 6.35 236.01, 2.04 247.88 M12.47 220.24 C11.69 226.31, 8.74 231.85, 2.48 249.04" stroke="#e67700" stroke-width="4" fill="none"></path></g></g><g stroke-linecap="round" transform="translate(10 10) rotate(0 448.66563415527344 419.73008728027344)"><path d="M0.73 -0.61 C257.25 -0.93, 514.75 -1.9, 898.01 0.75 M897.83 -0.53 C896.4 196.04, 896.43 391.39, 897.83 839.45 M897.25 840.22 C684.41 842.27, 471.28 842.56, -0.11 840.13 M0.25 838.84 C-2.1 572.59, -1.76 304.65, 0.6 -0.61" stroke="#1864ab" stroke-width="1.5" fill="none" stroke-dasharray="1.5 7"></path></g><g transform="translate(687.5095520019531 45.140472412109375) rotate(0 67 12.5)"><text x="0" y="18" font-family="Virgil, Segoe UI Emoji" font-size="20px" fill="#1864ab" text-anchor="start" style="white-space: pre;" direction="ltr">DataCenter 1</text></g><g stroke-linecap="round" transform="translate(933.6852874755859 13.064498901367188) rotate(0 241.14524841308594 417.9231414794922)"><path d="M-0.36 -0.04 C123.24 -1.85, 245.98 -0.8, 482.34 -0.33 M483.05 0.62 C483.3 298.31, 482.53 596.09, 481.94 835.77 M481.49 835.13 C359.54 835.51, 234.61 836.51, -0.6 835.34 M0.2 835.72 C-0.63 661.02, -0.5 485.85, 0.52 0.38" stroke="#1864ab" stroke-width="1.5" fill="none" stroke-dasharray="1.5 7"></path></g><g transform="translate(1217.8590850830078 37.37812805175781) rotate(0 71.5 12.5)"><text x="0" y="18" font-family="Virgil, Segoe UI Emoji" font-size="20px" fill="#1864ab" text-anchor="start" style="white-space: pre;" direction="ltr">DataCenter 2</text></g></svg>