<svg version="1.1" xmlns="http://www.w3.org/2000/svg" viewBox="0 0 889.4678039550781 862.2238028208978" width="889.4678039550781" height="862.2238028208978">
  <!-- svg-source:excalidraw -->
  
  <defs>
    <style>
      @font-face {
        font-family: "Virgil";
        src: url("https://excalidraw.com/Virgil.woff2");
      }
      @font-face {
        font-family: "Cascadia";
        src: url("https://excalidraw.com/Cascadia.woff2");
      }
    </style>
  </defs>
  <rect x="0" y="0" width="889.4678039550781" height="862.2238028208978" fill="#ffffff"></rect><g stroke-linecap="round" transform="translate(250.62689208984375 189.87309757222698) rotate(0 146.37298583984375 55.80924987792969)"><path d="M0 0 C0 0, 0 0, 0 0 M0 0 C0 0, 0 0, 0 0 M-0.2 6.03 C1.35 5.39, 2.93 2.83, 5.27 -0.39 M-0.1 6.38 C1.56 4.2, 2.66 3, 5.13 0.7 M1.37 10.78 C1.09 8.92, 5.51 5.2, 10.08 -0.57 M-0.39 11.97 C3.31 8.13, 8 3.52, 10.48 -0.26 M0.26 20.12 C4.64 12.39, 9.72 6.77, 14.35 1.11 M-0.73 18.34 C4.93 11.67, 11.53 5.97, 15.73 0.31 M2.11 24.05 C5.99 17.62, 13.23 12.1, 21.08 1.91 M-0.2 23.28 C5.3 18.01, 11.72 10.7, 20.91 -0.39 M-0.09 30.39 C8.07 24.33, 14.04 15.06, 26.97 0.78 M0.94 31.39 C6.84 23.09, 12.58 16.1, 25.53 1.23 M0.11 36.58 C8.93 28.07, 17.13 13.72, 33.7 -2.09 M-0.25 36.37 C11.59 22.56, 22.56 8.46, 32.3 0.34 M1.87 41.65 C15.75 24.81, 28.7 8.44, 37.5 0.68 M0.6 41.71 C13.67 26.78, 26.8 11.75, 36.86 1.12 M-1.95 48.59 C15.29 33.73, 29.06 17.62, 43.3 -0.32 M0.17 48.43 C11.72 35.88, 21.94 22.66, 43.06 -0.73 M0.75 53.13 C12.5 39.32, 27.62 25.84, 46.47 -1.14 M0.15 54.28 C15.25 36.92, 30.12 20.49, 46.77 -0.58 M-1.05 61.79 C12 45.47, 23.89 32.04, 54.97 -0.51 M0.92 61.22 C15.95 41.12, 33.1 21.34, 53.12 -0.36 M0.11 68.73 C20.31 44.78, 38.94 19.84, 59.04 -1.69 M0.28 66.63 C13.46 52.04, 25.48 37.6, 58.3 0.87 M-0.92 74.03 C25.69 45.61, 49.93 18.65, 65.39 -0.47 M0.44 73.04 C21.84 48.92, 42.76 23.1, 62.84 -0.56 M1.08 80.02 C27.72 48.46, 54.14 16.15, 66.91 0.92 M0.11 78.83 C23.33 52.9, 46.08 27.13, 69.39 0.5 M1.28 86.08 C20.44 63.36, 40.23 38.77, 72.84 -2.12 M0.13 84.48 C17.71 66.02, 32.76 46.09, 74.03 0.5 M0.4 92.71 C23.92 60.43, 50.72 29.89, 78.43 1.48 M0.24 91.01 C31.54 56.83, 60.84 20.03, 79.98 0.66 M0.34 96.35 C22.46 73.93, 44.14 48.96, 83.18 -1.46 M0.7 98.2 C28.93 64.84, 56.78 30.45, 84.96 -0.58 M-0.93 101.67 C25.63 75.39, 48.39 48.05, 88.5 1.69 M0.38 103.33 C28.9 68.44, 59.7 34.87, 90.93 -0.04 M-0.37 107.91 C20.16 87.22, 41.61 61.58, 95.89 1.42 M-0.22 108.88 C33.67 69.72, 67.05 31.84, 95.37 0.6 M1.64 111.41 C23.49 87.5, 43.41 63.47, 100.65 0.16 M1.66 113.49 C38.6 73.11, 74.79 31.48, 101.08 0.33 M8.34 114.7 C39.26 78.13, 71.05 40.59, 106.03 0.33 M8.18 114.47 C46.52 68.4, 85.51 23.67, 105.43 -0.76 M12.85 115.08 C49.18 73.19, 84.96 32.44, 112.96 -1.6 M12.25 112.72 C38.19 83.37, 65.7 53.54, 112.19 0.01 M19.76 113.63 C40.11 87.34, 62.93 66.07, 117.57 1.72 M17.18 113.27 C47.64 79.41, 76.16 46.73, 116.11 1.1 M23.97 115.07 C44.72 89.19, 63.13 63.04, 120.15 -1.18 M22.69 113.39 C55.05 76.87, 86.49 39.52, 122.01 0.51 M28.44 113.77 C56.88 85.18, 80.06 54.19, 128.1 -0.27 M28.68 114.16 C59.37 77.91, 89.86 43.28, 126.82 0.47 M34.35 113.88 C56.01 83.78, 80.58 55.82, 131.5 -1.24 M34.51 112.85 C69.05 71.34, 105 31.33, 133.22 -0.35 M38.79 115.32 C67.94 80.59, 98.41 43.14, 138.78 -1.38 M38.8 114.5 C62.68 85.88, 89.35 56.44, 138.43 -0.32 M44.95 113.91 C69.88 85.52, 92.53 58.36, 144.9 0.44 M44.68 112.26 C75.45 76.49, 105.79 40.34, 142.46 0.55 M47.82 115.39 C80.53 80.75, 110.35 47.71, 147.05 -0.16 M49.61 112.97 C84.28 73.33, 119.17 32.88, 148.93 1.13 M56.35 111.47 C73.21 92.32, 94.51 68.53, 152.83 1 M54.63 113.57 C86.32 80.73, 115.42 46.77, 153.32 0.61 M59.15 113.98 C83.97 83.68, 111.79 55.33, 159.94 0.72 M60.15 112.56 C96.92 72.49, 133.06 31.26, 159.76 1 M66.03 115.54 C100.36 69.56, 139.79 24.89, 164.36 -1.52 M64.59 113.27 C93.65 81.63, 122.21 49.93, 165.34 0.55 M72.97 112.01 C106.52 73.87, 136.86 34.53, 168.07 0.51 M71.4 113.53 C97.11 82.59, 124.68 51.75, 168.83 0.28 M77.06 114.73 C101.01 83.83, 125.99 54.31, 175.17 -2.16 M75.19 114.41 C100.73 84.42, 126.7 56.23, 175.03 -0.63 M80.06 113.32 C116.2 73.94, 153.58 31.05, 179.65 -1.63 M81.29 112.44 C119.43 68.57, 159.68 23.37, 179.49 -0.27 M88.1 111.8 C123.18 71.23, 162.9 26.89, 185.51 0.92 M86.58 114.09 C109.55 87.87, 132.11 62.4, 184.83 -0.62 M91.83 114.62 C118.93 81.02, 143.14 51.74, 190.49 -0.66 M91.72 113.18 C121.05 79.55, 150.02 47.04, 191.53 0.95 M98.11 114.71 C130.39 73.21, 165.18 35.76, 198.24 0.5 M97.98 113.43 C122.25 85.56, 147.07 57.03, 196.15 -0.83 M102.24 111.57 C127.95 82.44, 155.19 52.84, 202 0.41 M103.52 113.88 C126.05 89.01, 147.81 63.95, 202.21 -0.7 M107.6 115.3 C146.47 70.39, 181.66 28.97, 208.8 -1.76 M108.11 113.38 C129.5 87.79, 152.35 61.6, 206.36 0.64 M113.87 112.69 C140.75 81.24, 167.6 50.17, 211.16 0.43 M113.48 114.02 C144.65 78.82, 174.13 43.45, 211.24 0.95 M116.7 115.3 C152.54 75.03, 183.38 39.31, 219.24 -1.29 M118.09 113.67 C141.18 87.33, 163.23 62.13, 217.75 -0.02 M123.89 113.45 C152.23 79.33, 181.08 48.26, 224.57 -1.81 M123.37 113.35 C161.83 70.31, 197.66 29.44, 221.79 -0.13 M131.12 112.37 C165.8 70.14, 199.71 27.69, 228.2 -0.6 M128.54 113.82 C149.72 87.7, 173.11 61.58, 228.59 -1.32 M134.07 114.19 C160.01 83.84, 182.67 54.07, 232.42 -1.63 M134.88 112.93 C162.17 78.59, 191.11 46.75, 233.46 0.82 M140.16 114.07 C160.04 88.45, 181.39 66.01, 236.25 1.44 M140.5 114.17 C177.08 73.19, 211.98 31.98, 237.44 1.29 M144.74 114.18 C180.52 77.92, 211.39 37.79, 242.47 1.56 M144.65 114.09 C172.02 84.29, 196.91 54.92, 243.34 0.37 M150.74 111.86 C180.56 75.58, 212.91 38.4, 250.52 0.63 M150.48 112.83 C178.37 83.56, 203.72 53.71, 248.79 -0.62 M156.87 113.59 C180.5 83.29, 204.81 58.69, 254.1 -1.74 M155.32 113.5 C185.38 80.47, 213.89 45.66, 254.93 -0.14 M161.34 115.13 C192.4 76.44, 223.53 39.27, 258.78 1.91 M161.45 112.73 C194.39 75.7, 227.69 39.05, 260.11 1.08 M166 111.5 C200.18 72.48, 238.49 28.75, 264.27 -1.13 M166.42 114.08 C203.2 73.08, 240.39 30.08, 265.22 0.45 M172.06 113.13 C205.55 76.1, 237.5 37.81, 270.04 -1.6 M171.8 112.58 C196.48 84.99, 220.55 56.63, 269.46 1.07 M176.26 111.87 C201.01 89.79, 222.11 63.51, 277.54 -0.3 M177.48 112.09 C201.56 84.37, 226.64 55.34, 275.63 0.1 M182.57 113.07 C208.99 82.28, 234.88 52.01, 279.9 2.09 M182.42 113.89 C209.91 82.08, 237.43 49.23, 279.88 0.33 M185.73 114.37 C223.27 75.6, 256.27 34.97, 288.07 0.97 M186.31 112.81 C212.3 84.11, 238.4 56.47, 287.04 0.56 M194.16 114.03 C229.83 69.68, 267.92 28.47, 292.56 1.93 M193.61 113.98 C226.9 72.93, 262.39 33.71, 290.36 1.13 M199.03 113.26 C224.28 85.8, 246.58 58.5, 295.62 3.06 M198.63 114.57 C232.06 78.11, 264.21 40.23, 294.83 2.62 M203.7 113 C224.44 89.01, 249.82 59.29, 295.59 10.02 M204.15 112.95 C222.44 91.21, 240.6 69.76, 295.6 8.33 M209.44 112 C234.7 85.6, 259.39 54.95, 296.99 15.54 M209.18 114.25 C239.9 77.23, 272.08 40.66, 295.21 14.18 M213.65 114.89 C229.69 92.74, 247.29 74.51, 296.33 18.57 M214.26 112.71 C232.44 90.52, 252.34 68.53, 295.44 21.28 M219.47 114.21 C247.77 81.11, 274.82 49.2, 295.62 24.54 M219.26 113.28 C236.54 93.17, 256.57 71.98, 295.95 26.57 M226.06 114.5 C247.78 84.22, 271.27 56.1, 296.03 31.45 M224.63 113.96 C240.51 95.57, 255.54 79.23, 296 32.36 M230.22 114.38 C253.7 82.51, 283.15 52.4, 295.4 38.65 M229.17 113.38 C255.71 84.56, 281.11 54.05, 295.1 39.47 M236.59 114.56 C250.92 93.75, 267.86 77.16, 293.26 45.19 M235.37 113.19 C248.22 97.06, 260.32 83.13, 296.07 45.02 M239.38 111.95 C256.56 95.15, 269.91 77.35, 293.75 50.12 M241.14 113.58 C257.44 93.84, 272.15 76.5, 295.11 51.12 M244.49 111.69 C264.74 92.93, 285.61 70.69, 297.19 55.26 M245.09 113.71 C259.77 96.42, 273.39 80.84, 295.41 57.04 M251.26 113.23 C265.87 95.6, 282.72 75.93, 295.74 61.34 M250.34 113.2 C266.77 94.83, 281.59 78.34, 295.93 63.78 M258.6 114.4 C268.76 95.99, 283.79 82.09, 292.93 70.75 M255.8 112.59 C269.06 99.19, 280.07 85.07, 295.05 70.21 M262.73 113.46 C271.83 102.68, 279.37 94.14, 294.66 75.88 M261.93 112.84 C273.23 99.78, 285.98 86.27, 294.6 75.8 M267.34 113.15 C275.64 102.22, 280.72 96.2, 294.14 81.43 M268.02 113.74 C273.33 106.66, 280.01 98.86, 294.96 82.37 M273.28 114.77 C282.41 103.16, 288.8 92.19, 293.43 85.2 M271.99 113.43 C277.62 107.36, 285.03 99.9, 295.65 87.29 M276.75 114.26 C283.23 106.02, 290.14 99.14, 293.12 92.21 M277.67 112.83 C282.27 109.9, 285.2 105.85, 295.1 92.93 M282.98 112.34 C287.4 108.54, 289.22 103.29, 293.97 99.48 M282.6 113.19 C285.94 110.38, 289.79 106.1, 295.3 99.92 M288.52 113.53 C291.57 109.77, 292.32 107.44, 294.29 105.85 M288.88 112.71 C290.84 109.77, 294.15 106.69, 295.1 105.18" stroke="#4c6ef5" stroke-width="0.5" fill="none"></path><path d="M0.09 0.08 C59.35 0.55, 117.62 1.04, 293.97 0.46 M0.2 0.35 C101.6 -1.06, 203.87 -2.27, 292.76 0.24 M292.12 0.95 C293.16 29.41, 292.39 57.59, 294.43 113.4 M293.32 0.58 C293.97 42.53, 293.53 84.65, 292.23 112.53 M292.95 111.82 C222.43 112.92, 151.15 110.79, 0.55 111.81 M293.02 110.88 C190.04 110.53, 87.4 110.11, 0.24 111.22 M1.76 110.3 C-0.49 83.92, -2.26 57.5, 1.27 -1.77 M-0.02 112.34 C1.2 79.7, 0.42 45.2, -0.11 -0.34" stroke="#000000" stroke-width="1" fill="none"></path></g><g transform="translate(304.53521728515625 222.68398014058636) rotate(0 99.55834167480464 19.598098754882812)"><text x="0" y="28.19619750976561" font-family="Virgil, Segoe UI Emoji" font-size="31.35695800781249px" fill="#000000" text-anchor="start" style="white-space: pre;" direction="ltr">elastic proxy</text></g><g stroke-linecap="round"><g transform="translate(399.459228515625 10.301900062461357) rotate(359.9763468406868 2.177256629243459 86.88871920195407)"><path d="M-0.77 0.49 C0.14 29.67, 4.19 145.2, 5.12 174.08 M1.03 -0.3 C1.86 28.65, 3.93 143.8, 4.45 172.47" stroke="#c92a2a" stroke-width="4" fill="none"></path></g><g transform="translate(399.459228515625 10.301900062461357) rotate(359.9763468406868 2.177256629243459 86.88871920195407)"><path d="M-5.51 145.35 C-2 152.5, 0.38 161.5, 3.58 174.14 M-6.01 144.68 C-3.14 150.64, -0.67 157.92, 3.64 172.57" stroke="#c92a2a" stroke-width="4" fill="none"></path></g><g transform="translate(399.459228515625 10.301900062461357) rotate(359.9763468406868 2.177256629243459 86.88871920195407)"><path d="M15.01 144.98 C12.93 152.09, 9.73 161.2, 3.58 174.14 M14.51 144.31 C12.65 150.18, 10.39 157.55, 3.64 172.57" stroke="#c92a2a" stroke-width="4" fill="none"></path></g></g><g stroke-linecap="round" transform="translate(10 512.4601794814066) rotate(0 146.37298583984375 55.80924987792969)"><path d="M0 0 C0 0, 0 0, 0 0 M0 0 C0 0, 0 0, 0 0 M0.03 6.23 C0.17 5.79, 2.15 4.59, 5.59 0.55 M-0.02 6.77 C1.61 4.62, 2.42 3.03, 4.64 0.31 M-0.12 11.61 C2.47 10.95, 5.36 8.3, 10.15 -0.21 M-0.63 12.81 C1.98 10.43, 3.62 7.64, 10.6 -0.28 M-0.22 16.64 C3.05 14.93, 7.61 10.2, 14.06 -0.86 M0.35 18.24 C5.37 12.82, 10.33 6.58, 15.19 0.88 M-1.06 25.44 C7.5 16.04, 17.17 8.46, 20.5 1.81 M0.63 24.46 C7.29 14.42, 16.86 5.57, 21.33 -0.08 M0.75 31.85 C11.88 16.87, 19.93 7.67, 24.59 -0.97 M0.12 31.3 C7.7 22.92, 12.55 14.62, 25.95 1.24 M1.02 38.48 C10.78 27.33, 19.05 13.54, 32.99 -1.48 M-0.21 36.76 C8.12 27.83, 16.04 17.63, 32.87 0.13 M-1.07 40.93 C12.61 24.58, 29.28 8.58, 37.57 -1.38 M-0.42 41.97 C12.17 29.35, 23.54 14.83, 36.5 0.23 M-2.03 50.12 C14 32.67, 26.33 17.5, 41.53 0.23 M-0.52 48.88 C15.25 31.67, 30.17 14.52, 43.16 -0.03 M-0.52 53.08 C15.47 35.38, 33.64 18.73, 49.09 0.97 M0.12 55.49 C13.96 39.61, 26.09 26.18, 46.87 0.05 M0.33 59.03 C22.04 35.15, 40.69 14.5, 51.72 -0.83 M0.55 61.34 C22.6 35.58, 42.36 11.61, 52.6 -0.08 M-1.53 68.18 C21.14 45.1, 39.63 23.46, 57.79 0.02 M-1.09 66.67 C11.39 53.99, 24.57 38.33, 58.07 -0.78 M1.89 74.04 C23.82 43.42, 51.19 14.34, 62.78 -0.49 M-0.57 72.21 C17.3 55.89, 31.44 36.98, 63.04 0.27 M-0.43 79.75 C14.73 62.66, 30.81 43.18, 66.95 -1.38 M0.55 79.85 C22.61 52.14, 46.63 23.36, 69.05 -0.46 M1.04 84.88 C26.48 57.91, 50.83 28.18, 73.53 -0.71 M0.5 84.86 C17.01 67.88, 32.54 49.84, 74.77 0.09 M0.05 89.48 C31.46 54.97, 61.99 21.1, 78.42 -1.45 M0.12 92.4 C20.56 69.61, 39.68 46.38, 79.72 1.09 M-1.9 96.94 C17.15 75.74, 37.6 54.28, 84.36 0.5 M0.46 97.69 C25.75 67.5, 52.47 36.33, 85.57 0.25 M-0.57 102.22 C31.83 65.81, 61.95 30.28, 90.65 -1.54 M0.83 102.76 C33.6 66.07, 67.05 28.94, 89.93 -0.71 M-0.04 110.25 C28.66 74.45, 59.51 44.66, 95.28 -1.02 M-0.1 110.17 C20.14 86.39, 41.4 64.76, 95.62 0.42 M2.81 114.43 C22.58 90.64, 41.36 66.02, 100.68 -0.06 M2.28 113.92 C34.28 74.78, 67.87 38.16, 100.48 -0.17 M5.35 113.72 C42.65 72.1, 78.74 31.34, 107.86 -1.46 M7.65 114 C36.05 82.19, 63.7 49.21, 106.61 0.08 M13.47 113.23 C49.56 74.95, 81.2 33.27, 110.14 1.46 M12.14 113.34 C40.29 81.77, 66.94 51.85, 112.16 -0.32 M19.1 113.24 C39.66 89.96, 58.43 64.43, 114.64 1.59 M17.96 114.25 C53.47 71.99, 88.49 31.96, 115.98 0.23 M23.17 112.99 C62.15 69.1, 96.32 26.79, 123.27 0.41 M23.42 112.66 C50.56 83.17, 77.59 51.78, 122.67 0.15 M29.26 112.83 C53.98 83.46, 81.57 52.38, 127.71 0.23 M28.7 113.57 C63.68 71.31, 101.62 28.45, 126.63 -0.57 M33.82 114.17 C72.54 69.33, 107.14 25.53, 132.9 -0.92 M33.14 113.51 C64.84 79.38, 94.46 45.71, 131.68 -0.19 M39.81 113.66 C71.39 77.38, 101.44 44.12, 136.77 -1.29 M39 114.07 C68.03 78.99, 100.15 44.08, 137.9 1.29 M42.92 111.15 C67.9 86.52, 89.92 61.27, 142.43 -1.32 M44.75 112.31 C77.98 76.15, 108.85 41.54, 143.82 -0.45 M49.27 111.82 C82.47 72.44, 117.51 35.47, 149.81 0.43 M48.89 114.23 C77.9 84.05, 103.65 52.04, 147.28 0.46 M53.56 114.2 C86.41 77.94, 121.67 39.11, 151.88 1.31 M55.17 113.26 C89.19 73.17, 125.7 30.6, 153.67 -0.46 M60.79 112.28 C92.5 74.45, 127.58 32.5, 158.36 -1.31 M60.41 113.76 C97.74 69.11, 137.13 24.21, 158.7 0.4 M63.76 112.26 C89.65 90, 108.77 63.2, 163.86 -0.02 M65.11 114.15 C87.39 86.66, 109.68 62, 164.75 0.25 M72.09 114.93 C101.9 76.01, 134.04 42, 167.59 -1.28 M70.52 112.71 C104.12 74.99, 136.96 36.47, 169.54 0.35 M75.12 111.92 C113.49 72.3, 152.66 26.91, 173.56 0.61 M76.7 114.28 C98.46 89.79, 120.64 64.53, 174.54 -0.54 M81.5 112.56 C103.55 87.02, 127.35 61.2, 178.24 -0.37 M82.13 112.42 C121.71 68.27, 161.08 21.66, 179.63 0.36 M86.84 111.92 C114.4 79.86, 141.55 49.73, 186.77 0.03 M86.54 113.99 C106.51 90.09, 127.28 64.89, 185.48 -0.76 M93.93 112.87 C116.64 85.39, 137.43 58.58, 192.64 0.46 M93.13 112.51 C112.03 90.42, 131.81 67.86, 190.26 0.27 M96.4 114.16 C124.23 83.61, 152.53 48.25, 197.89 -0.04 M97.38 112.7 C131.08 73.68, 166.69 33.28, 195.97 -1.04 M102.9 112.47 C136.41 76.89, 166.19 38.33, 200.75 -1.87 M103.33 113.91 C123.97 91.94, 144.01 68.81, 201.17 0.71 M108.84 114.46 C141.87 78.05, 174.61 39.78, 207.89 1.05 M108.38 114.61 C142.67 73.6, 178.76 31.21, 207.33 0.26 M112.52 114.87 C140.55 82.78, 167.76 48.61, 210.07 1.49 M113.52 113.85 C150.44 69.68, 187.74 26.28, 211.55 0.13 M118.83 112.54 C148.38 82.08, 173.62 48.92, 218.34 0.84 M118.17 113.72 C144.75 84.03, 169.59 53.96, 216.88 0.12 M123.47 112.49 C147.05 90.12, 167.55 63.35, 223.73 1.28 M124.43 112.84 C159.61 73.24, 193.41 33.27, 223.05 -0.24 M128.6 114 C168.79 68.96, 203.51 28.61, 229.42 -0.23 M129.85 112.82 C153.74 87.65, 177.52 59.34, 228.84 -0.22 M135.06 112.65 C166.81 74.85, 197.35 39.13, 234.44 0.16 M135.74 113.71 C162.09 83.42, 187.47 54.48, 232.78 0.61 M138 112.39 C176.74 72.23, 209.62 32.87, 237.22 -0.04 M139.94 114.5 C176.38 72.16, 212.53 30.64, 238.79 0.56 M147.16 111.58 C180.32 75.3, 214.79 37.5, 242.52 -1.32 M145.1 112.57 C172.59 82.53, 198.91 51.28, 244.27 0.53 M150.47 115.12 C184.84 73.02, 221.12 32.41, 250.42 0.16 M149.45 114.16 C180.19 81.24, 208.05 46.67, 249.16 -0.21 M154.27 112.43 C176.13 88, 198.69 65.38, 253.86 1.32 M155.09 113.83 C184.57 80.57, 214.36 45.8, 254.55 -0.87 M163.01 113.56 C185.17 86.33, 204.85 62.24, 260.31 -1.71 M160.8 112.97 C195.63 75.16, 230.35 34.91, 260.43 0.38 M167.44 111.23 C195.64 79.35, 223.71 47.46, 265.97 -1.57 M166.27 113.2 C193.34 85.18, 218.72 54.98, 265.06 0.83 M172.27 112.93 C206.02 74.87, 243.71 32.43, 269.43 -1.57 M170.91 112.91 C195.37 87.25, 218.54 58.43, 270.65 0.77 M176.36 114.94 C205.56 80.45, 236.24 46.97, 273.92 0.31 M178.12 112.68 C199.52 88.26, 222.48 61.84, 276.72 -0.14 M180.44 114.4 C210.65 80.35, 239.53 45.42, 280.92 1.56 M182.11 113.78 C218.28 72.89, 254.3 31.91, 279.83 0.69 M186.62 112.16 C220.51 70.8, 257.81 31.12, 284.4 -0.87 M187.45 114.34 C217.67 79.92, 246.65 46.5, 286.9 -0.79 M193.35 113.03 C226.52 71.8, 261.61 31.98, 292.5 -0.43 M193.21 114.14 C218.82 81.27, 245.7 51.22, 290.95 0.19 M196.4 112.15 C219.64 87.15, 243.27 61.04, 295.73 1.25 M197.98 114.27 C225.09 82.89, 250.81 52.11, 294.44 1.97 M202.39 111.77 C232.45 78.63, 267.45 42.23, 295.29 9.54 M204.48 112.36 C224.73 89.52, 244.8 65.57, 295.69 8.9 M210.48 115.33 C225.45 91.52, 245.68 72.16, 293.21 12.22 M209.39 114.1 C227.35 93.11, 244.92 71.45, 296.07 13.29 M214.56 111.5 C235.62 89.98, 256.29 64.99, 294.13 18.66 M214.61 113.62 C236.04 90.59, 255.88 67.07, 295.89 19.93 M220.91 112.28 C237.17 95.21, 254.85 74.13, 294.83 28.12 M219.01 113.05 C240.67 87.54, 264.32 61.65, 295.02 26.77 M226.44 113 C243.76 95.03, 259.84 76.16, 293.83 31.76 M225.77 112.89 C243.41 92.7, 262.34 72.29, 294.63 32.42 M228.32 114.47 C256.39 84.76, 280.59 52.92, 293 37.51 M230.1 113.59 C253.23 87.85, 275.2 62.84, 293.83 39.35 M234.22 114.96 C255.01 91.43, 275.44 65.74, 294.48 44.34 M234.57 113.92 C256.27 91.06, 275.56 69.46, 294.71 43.61 M239.95 112.3 C250.31 100.22, 265.91 85.41, 295.67 50.61 M240.87 114.51 C255.31 95.03, 271.21 78.73, 294.43 51.54 M247.68 111.95 C266.14 90.92, 284.97 70.82, 296.78 56.83 M245.09 112.27 C257.26 99.67, 268.18 86.46, 294.84 56 M251.61 113.06 C270.52 91.53, 284.67 73.5, 296.45 61.79 M251.5 113.9 C264.38 98.01, 276.66 83.7, 295.26 62.87 M256.18 112.49 C270.18 98.97, 283.52 82.81, 295.37 69.31 M255.84 112.31 C269.18 100.34, 280.56 86.66, 294.07 69.19 M261.73 114.94 C268.7 104.46, 278.16 94.66, 295.17 76.58 M261.1 114.15 C270.51 102.79, 278.01 94.04, 294.85 75.94 M266.7 112.96 C276.13 104.35, 283.07 94.99, 295.45 80.49 M266.8 112.19 C278.01 101.44, 289.05 87.47, 295.35 81.76 M273.32 113.05 C277.39 109.14, 284.18 102.8, 295.26 86.41 M272.77 112.91 C278.58 105.67, 287.54 97.92, 296.19 86.14 M277.79 111.69 C282.44 105.64, 289.61 98.49, 294.84 94.27 M278.41 112.86 C282.88 106.72, 289.2 100.63, 294.6 92.89 M283.87 113.42 C286.5 108.15, 288.29 105.95, 293.26 99.42 M282.56 114.11 C287.52 109.3, 290.24 104.7, 295.04 99.45 M289.1 113.98 C290.21 110.13, 291.89 109, 295.89 106.11 M288.57 113.07 C290.7 110.54, 292.95 109.1, 294.77 105.91" stroke="#12b886" stroke-width="0.5" fill="none"></path><path d="M0.89 0.96 C104.12 -0.44, 206.36 0.35, 292.43 0.44 M0.2 -0.73 C88.17 -0.94, 178.38 -0.9, 293.38 0.45 M293.79 -1.72 C291.51 37.73, 294 71.95, 294.36 112.08 M292.45 0.86 C293.16 27.51, 292.17 54.47, 293.49 112.12 M293.54 111 C188.61 111.65, 85.67 112.68, -0.3 111.4 M292.11 110.89 C221.12 111.92, 150.25 111.29, 0.5 111.76 M-0.77 109.72 C0.08 72.41, 2.88 31.29, -1.34 0.45 M-0.98 111.19 C-0.32 83.51, -1.29 54.82, -0.74 0.29" stroke="#000000" stroke-width="1" fill="none"></path></g><g transform="translate(28.70361328125 547.3490802382425) rotate(0 131.05083496093744 15.0980224609375)"><text x="0" y="21.196044921874986" font-family="Virgil, Segoe UI Emoji" font-size="24.156835937499984px" fill="#000000" text-anchor="start" style="white-space: pre;" direction="ltr">Primary elastic server</text></g><g stroke-linecap="round"><g transform="translate(362.5676298344745 307.8253183939243) rotate(0 -96.37194250137665 98.02143599055702)"><path d="M0.03 0.08 C-31.85 32.78, -159.91 164.23, -191.82 196.97 M-1.41 -0.92 C-33.41 31.4, -161.02 162.86, -192.78 195.43" stroke="#c92a2a" stroke-width="4" fill="none"></path></g><g transform="translate(362.5676298344745 307.8253183939243) rotate(0 -96.37194250137665 98.02143599055702)"><path d="M-180.34 168.04 C-181.63 175.81, -185.59 182.98, -191.4 197.1 M-181.3 167.44 C-183.75 173.38, -185.96 180.24, -191.96 196.33" stroke="#c92a2a" stroke-width="4" fill="none"></path></g><g transform="translate(362.5676298344745 307.8253183939243) rotate(0 -96.37194250137665 98.02143599055702)"><path d="M-165.63 182.35 C-170.82 186.42, -178.59 189.89, -191.4 197.1 M-166.59 181.75 C-172.22 184.63, -177.66 188.35, -191.96 196.33" stroke="#c92a2a" stroke-width="4" fill="none"></path></g></g><g stroke-linecap="round" transform="translate(580.4194946289062 393.88962284078167) rotate(0 146.37298583984375 55.80924987792969)"><path d="M0 0 C0 0, 0 0, 0 0 M0 0 C0 0, 0 0, 0 0 M-0.83 5.77 C1.7 5.6, 1.61 3.59, 4.39 0.74 M-0.32 6.47 C0.75 5.26, 2.09 3.52, 4.62 0.05 M1.2 12.76 C2.88 8.95, 6.6 2.85, 11.09 -1.02 M0.44 11.98 C4.14 8.33, 7.62 3.63, 10.28 -0.22 M0.33 18.07 C5.16 16.16, 8.15 12.36, 16.34 0.98 M-0.11 17.46 C6.09 10.8, 12.08 4.52, 15.13 -0.46 M0.49 26 C7.26 19.54, 11.5 12.2, 21.9 1.88 M-0.56 23.63 C4.2 18.72, 9.45 13.72, 20.92 0.32 M1.42 30.19 C7 21.27, 15.43 10.72, 27.3 1.34 M-0.35 29.85 C9.28 19.07, 17.83 8.78, 26.56 -0.52 M1.11 35.45 C11.64 22.78, 24.75 10.39, 31.68 -1.69 M-0.22 37.06 C9.33 24.69, 20.08 15.18, 31.69 -0.46 M0.18 43.11 C6.99 32.81, 17.46 26.42, 36.78 1.73 M0.42 43.11 C7.71 34.22, 14.56 24.83, 36.89 0.2 M-0.06 50.24 C12.4 31.63, 27.89 17.83, 42.17 -0.59 M-1.06 48.97 C15.11 30.99, 30.64 13.5, 43.3 -0.7 M1.1 55.32 C15.29 40.82, 27.82 24.07, 48.13 1.07 M0.56 54.57 C17.92 36.21, 33.04 16.16, 46.93 0.94 M-1.48 61.19 C14.56 43.14, 28.64 28.41, 54.9 -0.84 M0.62 60.79 C11.75 48.19, 21.97 34.46, 52.33 0.44 M-0.07 68.7 C22.13 41.56, 42.67 18.43, 57.55 -0.1 M-0.42 67.26 C22.5 41.34, 43.09 16.15, 58.82 0.4 M-0.03 71.95 C16.82 54.85, 34.74 33.64, 65.29 0.13 M0.53 72.64 C16.74 53.49, 34.44 33.45, 64.18 -0.26 M0.3 79.43 C23.59 50.99, 51.48 20.47, 68.21 -1.67 M-0.28 79.91 C26.43 48.91, 51.27 18.34, 68.94 -0.28 M-1.72 85.76 C23.6 59.98, 45.61 35.48, 72.68 -0.51 M0.62 85.12 C24.08 58.29, 46.84 32.75, 74.03 -1.04 M-0.25 92.56 C22.39 63.4, 50.04 35.69, 80.13 2.08 M-0.91 90.46 C18.68 70.05, 36.89 49.15, 79.02 -0.5 M-0.28 96.21 C28.96 64.71, 54.73 36.86, 86.33 -1.01 M-0.49 97.01 C28.4 62.87, 58.53 29.87, 85.86 -0.2 M-1.58 104.98 C26.13 77.51, 48.48 46.99, 88.27 0.46 M-0.77 104.04 C29.27 70.93, 60.13 36.29, 89.06 0.8 M-0.56 110.24 C32.01 71.99, 68.6 28.75, 95.39 -0.99 M0.09 109.3 C31.79 71.17, 65.67 31.39, 95.45 -1.08 M2.3 113.89 C39.11 69.33, 79.24 23.97, 100.48 0.38 M1.44 112.49 C25.53 89.46, 45.68 63.87, 100.37 0.12 M6.71 114.32 C29.22 85.52, 51 62.43, 106.91 0.47 M7.77 114.38 C38.51 76.81, 70.69 41.28, 105.38 -1.09 M11.88 111.83 C46.45 74.73, 79.01 35.78, 111.52 0.31 M12.44 112.3 C50.45 71.23, 88.69 27.07, 110.53 0.42 M19.25 114.59 C40.83 90.56, 62.92 65.66, 115.21 -0.31 M17.79 113.17 C40.19 87.74, 62.91 62.37, 115.37 0.11 M24.48 111.28 C63.69 68.65, 103.22 20.53, 121.07 0.37 M23.61 112.28 C51.11 80.46, 78.56 49.43, 122.45 0.11 M28.31 114.06 C47.61 90.88, 68.05 64.78, 126.47 -0.72 M29.32 113.31 C51.95 85.67, 74.18 58.65, 127.88 0.5 M35.84 111.49 C53.79 90.48, 73.43 68.3, 131.7 0.22 M33.71 113.38 C61.33 82.34, 89.27 48.79, 133.33 0.06 M39.35 111.52 C71.89 73.87, 108.53 32.84, 136.81 -1.26 M39.12 113.09 C71.78 76.53, 102.86 38.62, 137.25 -0.68 M45.62 114.33 C66.52 92.49, 86.67 69.15, 142.89 1.14 M45.24 113.52 C77.93 76.88, 110.51 39.09, 143.64 0.59 M50.72 115.38 C83.31 74.62, 119.68 31.05, 148.91 1.38 M49.25 114.28 C76.46 82.48, 103.62 49.81, 147.23 0.98 M55.36 114.24 C92.11 70.06, 129.15 26.49, 153.02 0.01 M55.55 112.54 C84.64 80.97, 111.05 48.53, 154.18 0.46 M59.68 113.63 C87.29 83.91, 111.06 53.59, 157.37 1.13 M60.04 113.07 C82.35 89.61, 103.15 64.09, 159.37 0.86 M65.89 113.02 C101.11 73.63, 134.18 33.42, 165.4 -0.71 M65.1 114.01 C104.29 70.12, 140.39 28.4, 165.04 -0.09 M72.4 111.86 C96 88.43, 119.69 59.25, 170.68 0.49 M71.15 113.13 C102.86 75.85, 134.18 39.53, 170.04 0.28 M77.89 114.79 C104.15 84.22, 129.51 55.55, 174.21 1.04 M75.11 113.18 C112.7 72.71, 147.13 32.33, 174.58 -0.39 M81.96 115.26 C119.22 71.79, 155.36 30.35, 181.24 0.57 M82.51 112.58 C116.22 75.64, 150.03 37.68, 179.4 -0.47 M85.98 112.54 C114.32 83.44, 140.2 51.7, 186.57 0.91 M86.66 114.53 C122.25 72.65, 158.62 31.37, 186.5 -0.31 M90.34 114.6 C122.97 81.5, 149.74 45.67, 191.37 -0.93 M91.38 112.99 C112.92 88.64, 134.88 65.05, 190.38 0.83 M95.33 115.09 C126.18 81.07, 156.71 44.95, 196.49 -1.85 M98.25 113.73 C120.58 87.04, 141.57 62.18, 196.76 -1.26 M102.42 112.25 C137.61 75.4, 172.71 34.41, 203.27 0.28 M103.28 112.37 C131.5 80.39, 159.45 48.44, 201.75 -0.63 M107.06 113.86 C135.62 86.32, 160.76 55.4, 206.88 1.59 M108.19 113.4 C143.39 74.14, 180.24 32.21, 206.63 -1.21 M112 112.18 C137.52 87.87, 160.15 57.51, 213.08 1.09 M113.06 114.21 C142.03 80.24, 171.93 46.75, 211.04 0.29 M120.14 112.87 C140.32 89.4, 163.77 62.41, 219.58 -0.34 M117.59 114.12 C147.44 80.35, 176.84 45.68, 217.69 0.34 M123.78 113.94 C160.21 73.62, 196.93 32.3, 220.82 0.98 M123.83 112.42 C158.08 71.47, 194.49 31.21, 221.6 -0.31 M129.48 114.71 C159.88 79.93, 188.96 46.33, 229.3 -1.59 M129.36 113.42 C163.93 72.38, 199.29 31.98, 228.8 -0.67 M135.36 114.7 C160.76 80.53, 187.79 51.14, 232.41 0.01 M134.04 112.4 C157.27 86.48, 180.89 59.83, 233.56 -0.4 M139.89 114.59 C167.89 82.32, 193.62 50.34, 237.04 0.19 M139.2 112.77 C171.97 75.72, 207.69 36.56, 238.46 0.9 M147.25 111.18 C168.15 86.8, 189.25 60.79, 245.71 0.87 M146.39 113.98 C165.58 88.95, 187.51 65.68, 242.86 -0.98 M152.09 114.3 C172.25 90.96, 191.64 65.76, 250.65 -1.28 M150.59 112.62 C176.65 83.82, 202.73 53.22, 248.45 -0.59 M156.88 113.74 C183.44 85.98, 207.22 57.26, 256.46 -1.2 M156.92 112.43 C179.31 87.74, 202.54 60.64, 254.24 0.92 M160.7 112.22 C188.21 80.08, 219.44 46.79, 258.92 1.55 M161.85 113.35 C186.14 87.13, 209.29 60.31, 258.86 -0.1 M168.57 112.3 C192.63 84.4, 219.71 55.99, 264.31 -0.33 M165.94 113.51 C206.03 68.23, 244.33 22.17, 264.21 -0.82 M172.25 113.34 C207.45 74.4, 240.61 36.78, 268.21 1.1 M171.06 114.31 C205.19 75.39, 239.1 35.28, 269.74 0.14 M175.55 114.4 C211.94 76.41, 243.65 41.09, 274.82 -2.08 M177.07 112.41 C197.66 87.57, 221.42 61.8, 276.12 -0.32 M183.16 115.22 C209.14 79.76, 237.98 50.56, 279.78 1.35 M183.1 112.79 C220.06 69.82, 257.95 27.02, 281.46 0.33 M185.3 111.9 C209.8 86.53, 231.78 59.93, 285.46 -1.4 M187.56 113.52 C227.7 66.75, 265.46 22.43, 287.07 -0.79 M193.79 114.04 C222.51 78.77, 250.06 46.7, 291.8 -0.1 M192.67 113.04 C227.35 74.55, 261.63 34.71, 291.64 0.13 M196.17 112.01 C229.19 80.74, 258.48 45.89, 293.63 1.61 M197.94 114.45 C221.57 86.41, 245.82 59.06, 295.02 2.82 M202.37 114.56 C227.15 84.62, 248.27 60.07, 294.13 10.22 M203.24 113.26 C233.09 80.55, 261.03 47.72, 295.03 7.97 M207.47 111.8 C242.49 76.08, 277.08 33.74, 296.05 14.72 M209.04 113.49 C228.59 92.5, 249.11 69.63, 295.13 13.75 M215.06 112.13 C237.66 85.07, 266.44 57.09, 296.68 18.58 M214.1 112.61 C242.86 79.18, 273.15 44.88, 294.79 20.88 M220.04 113.17 C241.83 86.86, 266.88 60.41, 294.42 24.94 M219.69 113.65 C239.43 88.63, 259.07 65.97, 294.45 25.88 M223.92 114.7 C249.47 87.92, 269.68 61.38, 295.62 31.56 M225.32 114.19 C243.87 88.9, 263.66 66.93, 295.75 33.11 M229.65 113.61 C249.6 90.19, 269.84 71.45, 293.19 40.45 M228.97 114.4 C245.55 96.13, 259.16 79.18, 294.61 38.57 M236.92 112.81 C257.51 86.69, 280.35 61.79, 296.75 45.12 M234.77 114.06 C249.6 98.39, 262.9 81.62, 294.73 44.14 M240.97 112.21 C255.84 97.43, 268.07 83.46, 296.67 51.75 M241.28 112.64 C262.71 88.46, 284.39 64.65, 294.05 50.9 M247.92 113.6 C261.04 97.69, 275.12 82.46, 296.76 54.84 M245.13 112.24 C260.76 98.61, 272.66 82.62, 294.86 55.89 M249.57 111.66 C266.87 95.68, 280.32 81.7, 295.09 62.2 M251.31 113.74 C262.79 101.62, 273.44 88.38, 295.01 63.16 M258.71 114.8 C266.8 100.33, 277.27 87.97, 296.61 70.61 M256.85 113.7 C267.57 100.14, 277.88 89.22, 293.93 68.5 M259.93 112.22 C270.94 104.99, 274.37 96.38, 293.27 75 M261.06 114.51 C270.21 102.36, 280.27 93.68, 295.19 74.81 M268.96 114.74 C278.29 99.21, 288.29 89.17, 294.12 79.67 M267.21 113.35 C277.95 102.06, 288.37 89.82, 293.96 82.3 M271.44 113.78 C280.23 105.09, 288.07 95.11, 295.93 87.94 M272.81 114.24 C279.31 106.98, 285.4 98.13, 296.09 86.31 M278.27 114.32 C282.65 106.83, 289.91 100.69, 294.04 93.12 M277.27 113.07 C283.83 105.87, 290.36 98.94, 294.32 93.32 M284.25 113.77 C287.48 110.38, 291.39 104.86, 293.2 100.14 M282.23 113.63 C287.91 108.6, 292.75 102.79, 295.29 100.69 M288.37 114.07 C291.46 110.8, 293.77 108.62, 295.94 105.21 M288.74 112.88 C289.9 111.24, 291.73 109.83, 295.25 105.42" stroke="#fab005" stroke-width="0.5" fill="none"></path><path d="M-0.23 1.39 C80.06 -0.34, 158.19 1.51, 291.79 -0.25 M293.06 -1.93 C293.92 41.9, 291.81 88.71, 291.31 110.97 M293.56 112.19 C177.41 112.31, 58.65 112.9, -0.82 111.76 M-1.28 112.44 C1.46 74.25, 0.13 37.51, -0.35 -0.17" stroke="#000000" stroke-width="1.5" fill="none" stroke-dasharray="1.5 7"></path></g><g transform="translate(619.986083984375 436.40260807027386) rotate(0 116 12.5)"><text x="0" y="18" font-family="Virgil, Segoe UI Emoji" font-size="20px" fill="#c92a2a" text-anchor="start" style="white-space: pre;" direction="ltr">Backup elastic server 1</text></g><g stroke-linecap="round" transform="translate(578.80419921875 575.4678088759379) rotate(0 146.37298583984375 55.80924987792969)"><path d="M0 0 C0 0, 0 0, 0 0 M0 0 C0 0, 0 0, 0 0 M-0.1 6.41 C1.09 4.81, 3.88 2.23, 4.76 -0.37 M-0.33 6.6 C2.03 3.92, 3.42 1.52, 5.06 0.19 M-1.47 12.61 C3.64 8.9, 6.44 6.33, 9.25 -0.25 M0.41 12.1 C4.16 7.65, 7.22 4.66, 10.33 -0.67 M-0.39 19.56 C3.04 12.62, 10.86 7.74, 16.35 2.29 M-1.05 17.46 C3.57 14.1, 6.59 10.66, 15.24 -0.29 M0.24 22.46 C8.01 14.49, 13.06 10.48, 22.55 -0.8 M0.02 23.25 C7.02 14.86, 14.68 7.71, 22.08 0.01 M-1.72 31.98 C7.95 24.07, 12.97 13.51, 24.49 0.67 M-0.91 31.04 C7.82 21.36, 17.98 10.54, 25.28 1.01 M-0.71 37.24 C9.53 25.4, 23.18 8.55, 31.61 -0.79 M-0.06 36.3 C9.99 24.42, 21.55 10.33, 31.67 -0.88 M0.19 43.15 C13.27 26.63, 29.2 9.12, 36.7 0.58 M-0.67 41.75 C9.36 33.73, 16.15 23.52, 36.59 0.33 M-0.65 49.62 C9.31 35.75, 18.1 27.6, 43.13 0.68 M0.41 49.68 C13.23 32.6, 27.19 18.04, 41.6 -0.88 M-0.72 53.17 C16.87 36.02, 32.21 16.87, 47.74 0.52 M-0.17 53.64 C18.13 34.83, 36.84 13.14, 46.75 0.62 M1.39 61.97 C13.01 49.25, 25 35.99, 52.09 -0.86 M-0.06 60.55 C11.87 46.77, 24.64 32.86, 52.24 -0.44 M0.72 65.45 C23.69 41.39, 47.27 11.61, 57.29 0.57 M-0.15 66.45 C16.12 47.56, 32.2 29.6, 58.67 0.32 M-0.04 73.51 C12.07 58.92, 25.14 41.29, 63.35 -1.26 M0.97 72.76 C15.63 54.95, 29.5 37.55, 64.76 -0.05 M1.58 77.74 C13.58 63.67, 27.23 48.38, 67.92 0.42 M-0.55 79.63 C18.79 58.11, 38.4 34.15, 69.55 0.27 M0.5 83.05 C24.55 55.23, 52.78 23.88, 73.68 -1.81 M0.27 84.62 C25.08 57.32, 48.18 28.6, 74.13 -1.23 M0.86 92.65 C17.82 75.08, 34.12 56.18, 79.11 1.35 M0.49 91.84 C26.88 62.38, 53.15 31.84, 79.86 0.79 M0.72 99.73 C28.57 64.41, 60.23 26.26, 85.79 0.84 M-0.76 98.63 C22.94 71.04, 46.48 42.53, 84.1 0.43 M0.11 104.63 C33.64 64.28, 67.42 24.45, 89.24 0.22 M0.3 102.93 C26.89 74.22, 50.89 44.55, 90.4 0.67 M-0.82 110.06 C26.11 81.13, 49.2 51.59, 94.24 0.58 M-0.46 109.5 C21.29 86.7, 41.52 61.82, 96.25 0.31 M2.77 112.47 C37.75 73.35, 70.59 33.4, 101.62 -0.5 M1.97 113.46 C40.92 69.86, 76.76 28.42, 101.26 0.12 M8.62 112.07 C32.38 88.46, 56.23 59.1, 107.55 -0.06 M7.37 113.34 C39.29 75.82, 70.83 39.24, 106.92 -0.26 M14.77 114.24 C40.84 83.87, 66.04 55.4, 110.43 1.25 M11.99 112.63 C49.34 72.43, 83.53 32.33, 110.8 -0.18 M18.18 115.46 C55.44 72, 91.58 30.56, 117.46 0.78 M18.73 112.79 C52.44 75.85, 86.25 37.88, 115.62 -0.26 M22.85 111.99 C51.02 83.1, 76.72 51.57, 122.79 1.12 M23.53 113.99 C58.89 72.37, 95.01 31.38, 122.72 -0.1 M26.56 114.8 C59.19 81.71, 85.96 45.88, 127.59 -0.72 M27.6 113.2 C49.14 88.85, 71.1 65.25, 126.6 1.04 M32.21 114.54 C62.87 80.74, 93.2 44.84, 132.71 -1.65 M35.12 113.19 C57.31 86.67, 78.15 61.97, 132.98 -1.05 M38.64 112.46 C73.83 75.61, 108.93 34.62, 139.49 0.49 M39.5 112.58 C67.72 80.6, 95.67 48.65, 137.97 -0.42 M43.93 113.32 C72.32 85.97, 97.29 55.24, 143.1 1.79 M45.07 112.86 C80.03 73.86, 116.64 32.2, 142.85 -1 M48.22 112.39 C73.74 88.07, 96.37 57.71, 149.3 1.3 M49.28 114.42 C78.25 80.45, 108.15 46.96, 147.26 0.5 M57.01 112.32 C77.05 89.03, 100.34 62.2, 155.8 -0.13 M54.47 113.57 C84.12 80.02, 113.32 45.58, 153.91 0.55 M60 114.15 C96.43 73.83, 133.15 32.51, 157.03 1.18 M60.05 112.63 C94.3 71.67, 130.71 31.41, 157.82 -0.11 M65.7 114.92 C96.1 80.14, 125.18 46.54, 165.52 -1.39 M65.58 113.62 C100.15 72.58, 135.51 32.19, 165.02 -0.47 M71.58 114.9 C96.98 80.73, 124.01 51.35, 168.63 0.22 M70.26 112.61 C93.49 86.69, 117.11 60.04, 169.78 -0.2 M76.11 114.8 C104.29 82.32, 130.19 50.14, 173.92 -0.36 M75.42 112.98 C108.41 75.67, 144.36 36.25, 175.33 0.35 M83.47 111.39 C104.36 87.01, 125.47 61, 181.93 1.08 M82.61 114.18 C101.8 89.16, 123.73 65.89, 179.08 -0.77 M88.31 114.51 C108.61 91, 128.14 65.65, 187.53 -1.83 M86.81 112.83 C113.05 83.83, 139.31 53.01, 185.32 -1.14 M93.1 113.95 C119.66 86.18, 143.44 57.46, 192.68 -0.99 M93.14 112.64 C115.53 87.94, 138.76 60.85, 190.46 1.12 M96.92 112.43 C124.62 80.06, 156.05 46.54, 195.8 1.01 M98.07 113.56 C122.52 87.16, 145.82 60.16, 195.73 -0.65 M104.79 112.51 C128.85 84.61, 155.93 56.2, 200.53 -0.12 M102.16 113.72 C142.25 68.43, 180.55 22.38, 200.43 -0.61 M108.47 113.55 C143.9 74.35, 177.29 36.46, 205.09 0.55 M107.28 114.52 C141.63 75.33, 175.77 34.97, 206.62 -0.41 M111.77 114.6 C148.16 76.62, 179.87 41.3, 211.04 -1.87 M113.29 112.62 C133.88 87.77, 157.64 62.01, 212.34 -0.12 M119.38 115.43 C145.54 79.75, 174.57 50.33, 216.66 0.8 M119.32 113 C156.53 69.73, 194.66 26.64, 218.33 -0.22 M122.17 111.35 C146.52 86.15, 168.35 59.73, 221.68 -1.19 M124.44 112.98 C164.31 66.51, 201.82 22.49, 223.29 -0.58 M130.01 114.25 C158.92 78.76, 186.65 46.47, 228.68 -0.65 M128.89 113.25 C163.8 74.49, 198.31 34.39, 228.52 -0.42 M133.05 111.47 C166.47 79.74, 196.15 44.41, 231.82 -0.45 M134.81 113.9 C158.77 85.49, 183.34 57.77, 233.21 0.76 M138.59 114.77 C165.14 82.68, 188.09 56.04, 237.56 2.13 M139.46 113.47 C171.65 78.11, 201.88 42.65, 238.47 -0.12 M144.34 111.25 C184.09 70.19, 223.38 22.46, 244.73 0.58 M145.92 112.94 C168.22 88.97, 191.43 62.99, 243.82 -0.38 M151.28 112.34 C179.47 78.88, 213.78 44.53, 250.61 -1.59 M150.32 112.82 C185.56 71.93, 222.41 30.08, 248.72 0.71 M156.92 112.62 C185.53 78.86, 217.17 44.82, 253.6 -1.27 M156.56 113.1 C182.17 81, 207.79 51.46, 253.63 -0.33 M160.14 114.9 C195 77.79, 224.31 40.79, 260.05 -0.69 M161.54 114.39 C187.82 79.6, 215.64 48.39, 260.18 0.87 M166.53 113.06 C196.32 78.14, 226.31 48.18, 263.53 1.41 M165.84 113.85 C190.08 86.73, 211.15 61.19, 264.94 -0.47 M173.14 113.02 C208.26 70.46, 245.49 29, 271.67 0.8 M170.99 114.27 C194.69 88.66, 216.89 61.65, 269.65 -0.18 M177.85 111.66 C204.01 84.21, 227.21 57.61, 277.5 0.64 M178.15 112.09 C217.57 67.96, 256.75 24, 274.88 -0.21 M184.14 113.81 C210.73 82.27, 238.46 51.35, 282.18 -1.55 M181.35 112.45 C210.83 83.62, 236.08 52.28, 280.29 -0.5 M185.79 111.86 C220.66 75.52, 251.52 41.52, 286.42 -0.99 M187.53 113.94 C212.95 86.86, 237.07 58.12, 286.34 -0.03 M194.93 115.01 C220.81 80.79, 248.58 48.52, 293.19 1.39 M193.07 113.91 C219.57 81.1, 246.16 51.46, 290.51 -0.72 M196.15 112.43 C221.15 89.33, 238.25 65.02, 293.13 2 M197.28 114.72 C223.53 83.09, 249.97 55.56, 295.05 1.81 M205.18 114.94 C238.33 71.21, 272.33 33.56, 293.97 6.67 M203.43 113.56 C238.56 74.39, 273.22 34.27, 293.82 9.3 M207.66 113.99 C239.19 79.59, 269.33 43.97, 295.78 14.94 M209.03 114.45 C233.95 86.72, 257.76 57.48, 295.95 13.31 M214.49 114.53 C242.14 81.12, 272.03 48.94, 293.9 20.12 M213.49 113.28 C242.29 80.25, 271.51 47.21, 294.18 20.32 M220.62 114.01 C242.9 88.25, 266.6 59.87, 293.53 26.41 M218.36 113.85 C248.89 80.26, 279.08 45.27, 295.86 27.03 M224.36 115.27 C251.41 84.86, 276.49 56.95, 296.58 31.88 M225.09 112.89 C241.5 93.25, 259.05 74.45, 295.19 32.32 M230.21 113.54 C254.78 88.81, 276.36 62.72, 296.25 38.14 M229.17 114.11 C245.45 96.96, 259.83 79.62, 294.23 39.07 M236.18 113.29 C255.42 89.77, 278.82 65.3, 295.23 45.49 M235.9 113.18 C251.41 93.48, 269.62 75.04, 294.46 44.47 M240.56 115.24 C259.85 92.08, 276.93 71.41, 293.69 50.19 M240.61 113.85 C255.14 96.1, 271.29 78.86, 295.25 51.23 M245.27 113.27 C256.85 100.02, 270.5 85.84, 294 56.07 M246.36 112.88 C255.76 102.03, 267.02 88.79, 295.91 56.43 M250.67 113.35 C264.6 94.9, 281.38 78.86, 293.52 63.5 M250.17 114.15 C266.79 94.78, 280.88 77.83, 294.94 62.5 M254.84 114.5 C271.19 99.44, 279.58 83.17, 293.26 69.07 M256.73 113.67 C270.15 95.8, 285.28 79.9, 294.08 70.05 M260.45 111.71 C273.97 102.59, 283.87 89.63, 293.99 74.81 M262.62 113.57 C271.42 101.57, 283.93 89.66, 294.8 75.09 M266.02 112.88 C276.49 104.03, 283.76 95.79, 294.3 83.31 M268.04 113.19 C277.01 100.36, 288.59 88.85, 295.8 81.37 M272.74 113.76 C276.43 106.19, 283 100.21, 297.27 87.48 M273.03 113.08 C281.17 102.4, 290.93 92.86, 296.1 86.14 M279.83 114.89 C284.7 106.88, 290.51 99.7, 293.29 93.45 M277.15 114.03 C282.38 108.18, 287.27 103.22, 295.22 94.17 M283.24 112.62 C286.36 109.65, 289.14 105.85, 294.74 98.39 M283.68 113.16 C285.43 110.72, 288.02 107.42, 294.31 99.56 M287.9 112.33 C291.33 110.71, 291.36 108.41, 294.59 105.25 M288.14 112.91 C290.56 110.79, 293.08 108.13, 295.29 105.71" stroke="#fab005" stroke-width="0.5" fill="none"></path><path d="M-1.11 0.17 C79.65 -0.8, 159.25 0.66, 294.05 -0.5 M293.98 -0.35 C293.28 24.08, 291.09 46.44, 291.11 112.84 M292.88 112.62 C189.39 111.12, 84.45 111.78, -0.43 111.4 M-0.34 111.42 C1.1 67.56, -2.28 25.86, 1.36 0.43" stroke="#000000" stroke-width="1.5" fill="none" stroke-dasharray="1.5 7"></path></g><g transform="translate(618.5835571289062 617.6429645155863) rotate(0 118 12.5)"><text x="0" y="18" font-family="Virgil, Segoe UI Emoji" font-size="20px" fill="#c92a2a" text-anchor="start" style="white-space: pre;" direction="ltr">Backup elastic server n</text></g><g stroke-linecap="round"><g transform="translate(726.9345092773438 524.6186725233988) rotate(0 0.25179010635918075 17.501829084381484)"><path d="M0.21 -0.52 C0.39 5.54, 0.27 29.6, 0.2 35.52" stroke="#c92a2a" stroke-width="4.5" fill="none" stroke-dasharray="1.5 10"></path></g></g><g stroke-linecap="round"><g transform="translate(448.8242658667266 317.4497579020754) rotate(0 67.15199618935588 67.50212377905848)"><path d="M0.03 -0.46 C22.6 21.97, 111.56 113.02, 134.27 135.46" stroke="#e67700" stroke-width="4.5" fill="none" stroke-dasharray="1.5 10"></path></g><g transform="translate(448.8242658667266 317.4497579020754) rotate(0 67.15199618935588 67.50212377905848)"><path d="M106.37 121.08 C113.1 127.07, 116.65 127.73, 135.39 133.88" stroke="#e67700" stroke-width="4.5" fill="none" stroke-dasharray="1.5 8"></path></g><g transform="translate(448.8242658667266 317.4497579020754) rotate(0 67.15199618935588 67.50212377905848)"><path d="M120.94 106.63 C124.75 115.62, 125.27 119.29, 135.39 133.88" stroke="#e67700" stroke-width="4.5" fill="none" stroke-dasharray="1.5 8"></path></g></g><g stroke-linecap="round"><g transform="translate(440.5076194019988 306.2825601729871) rotate(0 67.02823024857787 165.8161980277195)"><path d="M-1.03 0.64 C21.44 55.71, 112.72 275.9, 135.08 330.99" stroke="#e67700" stroke-width="4.5" fill="none" stroke-dasharray="1.5 10"></path></g><g transform="translate(440.5076194019988 306.2825601729871) rotate(0 67.02823024857787 165.8161980277195)"><path d="M115.95 310.33 C121.14 314.48, 128.02 324.21, 133.24 329.51" stroke="#e67700" stroke-width="4.5" fill="none" stroke-dasharray="1.5 8"></path></g><g transform="translate(440.5076194019988 306.2825601729871) rotate(0 67.02823024857787 165.8161980277195)"><path d="M134.93 302.53 C134.03 309.04, 134.77 321.29, 133.24 329.51" stroke="#e67700" stroke-width="4.5" fill="none" stroke-dasharray="1.5 8"></path></g></g><g transform="translate(382.7568359375 399.38588443746136) rotate(308.80341507260107 119.500635986328 16.690032958984375)"><text x="0" y="24.38006591796872" font-family="Virgil, Segoe UI Emoji" font-size="26.704052734374955px" fill="#000000" text-anchor="start" style="white-space: pre;" direction="ltr">only backup writes</text></g><g transform="translate(118.94909511870333 378.25454107107186) rotate(314.7751433364114 99 16.5)"><text x="0" y="24" font-family="Virgil, Segoe UI Emoji" font-size="26.704052734374955px" fill="#000000" text-anchor="start" style="white-space: pre;" direction="ltr">reads &amp; writes</text></g><g stroke-linecap="round" transform="translate(586.7218322753906 740.6053030650385) rotate(0 146.37298583984375 55.80924987792969)"><path d="M0 0 C0 0, 0 0, 0 0 M0 0 C0 0, 0 0, 0 0 M-0.97 6.54 C1.86 3.76, 3.25 2.62, 4.59 -0.43 M0.09 6.1 C1.38 4.04, 3.37 2.08, 5.14 0.05 M0.34 10.79 C4.31 8.63, 4.86 4.86, 9.87 -1.52 M0.82 11.31 C3.67 7.34, 8.37 2.08, 9.84 0.54 M-0.05 17.71 C6.2 10.27, 11.56 5.2, 17.22 -1.02 M-0.03 18.33 C3.37 13.93, 6.2 10.89, 15.58 0.25 M-1.46 23.63 C6.42 16.85, 11.04 12.62, 21.6 0.53 M1.04 23.32 C7.67 15.13, 16.95 6.81, 21.55 -0.71 M-1.34 31.11 C9.79 18.53, 22.24 8.76, 27.83 -1.45 M0.58 30.21 C8.63 20.96, 17.49 9.88, 27.06 -0.45 M-1.52 37.02 C7.75 27.31, 15.89 18.05, 30.6 -1.25 M0.27 37.06 C9.74 27.03, 17.37 15.74, 31.94 0.63 M0.17 42.17 C9.09 31.83, 16.36 24.11, 35.36 -1.63 M0.92 43.3 C10.56 29.72, 20.74 17.65, 36.81 1.23 M-1.68 49.15 C13.46 30.95, 25.78 16.48, 41.96 -0.18 M0.35 49.2 C13.29 35.22, 25.48 20.69, 42.21 0.3 M-1.05 52.7 C15.59 40.59, 28.4 23.13, 45.77 0.28 M-0.24 53.8 C17.88 36.09, 35.61 14.73, 47.11 0.24 M0.6 61.36 C15.12 43.66, 32.04 23.46, 53.33 1.35 M0.3 60.08 C17.28 41.57, 32.57 24.3, 54.01 0.09 M1.3 67.82 C18.69 44.37, 39.19 21.59, 59.46 -1.33 M-0.52 66.91 C14.97 50.94, 27.98 33.45, 57.5 0.73 M-1.02 74.8 C13.27 58.13, 28.86 40.31, 62.86 -0.47 M1.03 72.48 C20.36 49.22, 41.64 26.03, 63.31 0.04 M-0.11 80.95 C15.37 62.58, 27.99 44.76, 67.27 0.5 M0.72 79.77 C16.33 62.72, 31.24 46.06, 68.84 0.11 M1.55 83.17 C17.97 62.53, 39.07 43.96, 73.08 1.08 M0.77 84.42 C19.9 62.04, 42.14 39.07, 74.31 0.4 M1.88 90.33 C21.84 62.29, 48.02 37.32, 78.47 1.29 M0.42 92.01 C17.23 73.73, 33.89 54.82, 79.24 0.98 M-1.83 97.51 C22.79 71.34, 44.89 47.25, 87.01 -0.68 M0.34 97.89 C20.08 75.94, 39.14 52.74, 85.55 -0.36 M-0.5 104.01 C31.41 68.96, 59.41 35.15, 88.79 1.13 M0.47 102.71 C33.79 64.98, 64.69 28.81, 90.11 -0.84 M-0.87 111.14 C24.17 84.51, 44.56 59.48, 96.07 -1.9 M-0.15 109.83 C35.01 71.38, 70.28 30.17, 95.8 0.44 M3.42 114.34 C35.21 72.44, 70.53 33.08, 100.37 0.65 M3 112.94 C27.87 85.38, 50.67 58.4, 100.11 -0.3 M6.38 111.89 C40.36 73.09, 76.51 31.61, 108.13 -0.14 M7.9 114.36 C46.38 69.31, 82.26 26.37, 106.15 -0.31 M13.31 114.96 C49.05 75.68, 80.93 37.59, 109.8 1.08 M13.03 112.66 C35.44 86.48, 59.79 58.97, 111.23 0.86 M17.83 112.27 C41 84.9, 63.37 58.56, 114.84 2.33 M17.89 112.89 C45.58 79.94, 74.81 45.69, 115.28 1.29 M22.2 111.41 C62.33 70.53, 100.16 24.95, 120.1 0.17 M22.75 113.44 C57.17 74.15, 92.86 32.39, 122.69 0.13 M30.47 112.56 C61.56 77.97, 89.58 41.18, 126.26 -0.44 M29.18 113.31 C55.73 84.39, 80.71 53.94, 126.15 1.06 M36.08 114 C65.46 75.3, 99.12 37.99, 132.75 0.26 M33.17 113.24 C55.48 86.84, 79.16 60.46, 133.04 0.2 M39.02 113.85 C64.02 85.02, 90.51 54.18, 138.92 -1.58 M39.66 112.94 C72.43 73.06, 106.58 34.31, 138.02 -0.68 M45.39 111.59 C78.21 75.47, 108.37 39.54, 143.64 0.24 M45.59 112.25 C76.03 77.88, 107.09 43.82, 144.07 -1 M48.62 113.77 C86.29 68.66, 125.57 28.79, 146.43 -0.41 M50.5 114.34 C83.22 75.44, 116.84 37.29, 149.08 -0.15 M57.01 111.6 C82.11 85.58, 103.46 54.31, 155.11 -0.42 M55.57 112.87 C80.93 80.81, 107.94 50.4, 152.87 -0.34 M58.88 114.55 C98.76 67.53, 136.33 23.03, 158.86 -1.7 M60.18 113.25 C92.19 74.71, 127.15 35.59, 157.81 0.63 M65.57 112.78 C100.68 73.76, 132.47 37.12, 163.93 -1.7 M66.32 114.48 C86.74 89.88, 108.07 63.95, 163.82 0.53 M71.81 114.95 C96.16 83.74, 121.17 54.51, 170.7 0.35 M70.44 112.66 C109.05 68.83, 148.09 24.56, 168.98 -0.1 M76.14 114.18 C111.06 76.42, 143.97 39.35, 173.33 0.97 M75.28 114.41 C100.75 83.17, 127.37 54.97, 174.56 -0.79 M79.87 114.31 C117.29 74.15, 150.66 33.18, 180.89 2.12 M82.3 112.78 C105.29 85.22, 129.67 57.51, 179.62 0.08 M88.24 115.65 C114.44 82.54, 145.54 49, 184.95 0.75 M86.22 114.48 C119.53 74.64, 152.84 36.61, 186.03 0.47 M93.98 112.51 C121.72 80.33, 146.19 51.06, 188.78 -1.48 M92.08 113.02 C129.43 69.66, 166.93 27.36, 191.06 -0.17 M98.49 114.89 C119.01 91.03, 138.46 66.38, 194.89 -0.66 M97.82 113.96 C118.02 90.04, 139.04 65.3, 196.43 0.33 M103.46 114.02 C132.74 80.07, 160.68 47.28, 202.19 -0.95 M103.35 114.02 C142.03 69.27, 179.59 24.8, 200.9 0.02 M107.96 112.12 C130.66 86.52, 156.42 60.92, 205.66 -0.99 M107.08 114.35 C135.69 82.29, 163.68 52.73, 207.27 0.03 M112.1 111.86 C139.51 84.48, 162.32 58.37, 213.37 -0.24 M113 113.64 C152.46 68.11, 190.5 23.39, 211.03 -0.25 M118.13 114.15 C137.43 90.85, 158.33 64.25, 218.23 -1.41 M119.25 113.37 C149.48 76.12, 181.63 39.35, 217.32 0.01 M126.1 111.61 C149.3 84.11, 173.87 56.51, 223 -0.75 M125.16 112.95 C147.23 85.73, 171.26 58.64, 221.61 0.31 M130.95 114.34 C161.45 74.76, 191.68 41.51, 228 1.49 M129.86 112.95 C169.76 69.01, 208.22 24.03, 228.64 -0.05 M134.13 111.42 C155.45 88.27, 177.23 66.09, 232.2 -1.28 M135.28 112.25 C161.86 80.61, 190.9 48.92, 233.09 -0.75 M140.77 112.62 C168.69 83.27, 194.9 48.1, 240.16 0.41 M140.76 113.25 C171.49 76.99, 204.47 39.74, 237.91 -0.51 M147.26 113.99 C175.66 79.77, 203.12 49.16, 242.52 1.9 M146.07 113.05 C167.4 88, 188.21 63.13, 244.2 0.31 M150.41 115.49 C183.58 76.9, 215.67 36.13, 248.3 -1.64 M150.02 112.64 C171.83 89.99, 191.31 66.24, 249.06 1.22 M155.03 114.6 C178.71 84.75, 206.76 55.19, 255.96 -0.91 M155.51 114.08 C179.96 86.02, 203.37 56.99, 253.96 -0.55 M159.11 111.98 C184.45 84.66, 206.46 58.43, 258.47 1.18 M160.06 113.71 C191.68 77.7, 223.45 41.86, 259.33 1.22 M165.4 113.07 C196.76 74.18, 230.84 36.06, 266.95 -0.85 M166.89 113.3 C196.73 78.36, 227.32 42.25, 265.64 0.86 M170.55 113.72 C198.87 79.82, 227.17 50.06, 271.82 -1.48 M171.52 113.27 C208.2 71.01, 244.22 28.3, 269.92 0.05 M176.76 113.81 C210.77 74.39, 244.28 35.05, 274.37 1.51 M176.77 113.87 C202.7 85.48, 226.09 57.27, 274.83 -1.05 M180.86 114.88 C215.82 77.39, 246.65 39.28, 279.94 0.59 M181.36 114.35 C211.96 77.66, 243.18 41.99, 281.27 -0.54 M185.31 114.52 C224.43 75.67, 255.42 35.35, 285.52 0.16 M186.32 112.93 C207.93 87.99, 229.6 62.97, 285.38 0.33 M194.6 112.21 C220.9 80.09, 249 49.5, 292.86 2.15 M192.81 114.2 C223.73 78.35, 252.92 44.17, 291.14 0.43 M199.63 115.22 C220.89 84.27, 247.9 58.98, 294.18 1.92 M197.98 114.59 C232.8 74.37, 266.34 35.18, 295.46 2.12 M204.75 112.99 C229.03 84.62, 252.3 59.84, 295.83 6.85 M203.38 114.28 C233.71 80.42, 262.67 46.56, 295.34 7.47 M208.78 114.75 C238.61 79.07, 271.19 43.95, 293.96 13.44 M209.49 114.43 C229.08 89.6, 250.05 65.52, 294.91 14.91 M212.75 115.11 C237.29 86.93, 258.8 63.3, 295.69 22.04 M214.85 114.29 C243.83 79.77, 271.3 46.73, 294.1 21.47 M220.91 111.74 C236.02 95.04, 253.77 75.41, 294.03 26.6 M218.54 114.48 C236.18 92.76, 255 73.65, 294.98 26.18 M224.47 114.97 C240.59 95.52, 252.47 78.43, 293.04 32.41 M225.31 114.11 C242.8 92.74, 260.52 72.63, 294.31 33.3 M230.61 113.42 C245.44 95.46, 262.21 76.08, 294.77 38.39 M230.09 114.01 C256.06 84.81, 280.36 55.97, 293.97 38.18 M234.21 111.58 C257.49 86.95, 280.23 61.33, 295.68 42.99 M235.1 113.88 C250.6 96.38, 265.78 79.64, 294.82 44.8 M238.91 115.54 C259.72 90.15, 281.69 66.52, 295.01 50.09 M240.37 113.51 C255.61 95.17, 271.2 78.63, 294.47 51.12 M244.73 114.49 C264.21 92.4, 284.46 71.59, 293.8 55.35 M246.86 113.93 C256.37 101.7, 267.83 89.4, 295.79 57.06 M249.26 114.45 C263.83 99.08, 278.62 82.86, 296 63.84 M250.93 112.67 C260.43 101.43, 271.07 90.8, 295.36 63.68 M255.21 111.81 C269.93 100.97, 279.83 85.75, 295.42 68.4 M257.5 112.83 C267.07 102.68, 276.1 93.49, 293.99 69.12 M263.58 115.03 C270.05 101.83, 277.32 92.77, 296.14 75.55 M262.56 114.41 C269.82 103.46, 278.31 94.17, 294.46 76.02 M269.26 114.21 C272.57 105.47, 277.28 101.56, 292.92 83.33 M268.24 113.36 C273.41 106.78, 280.47 99.56, 295.45 80.99 M274.19 114.75 C278.6 105.5, 289.2 94.5, 294.21 87.71 M271.36 112.87 C278.42 106.17, 284.68 97.81, 295.88 86.52 M278.95 114.94 C284.5 106.57, 287.55 103.28, 295.19 92.18 M278.53 112.51 C283.62 106.74, 288.41 99.42, 295.51 94.16 M283.79 111.81 C285.39 110.48, 286.95 107.4, 293.01 98.31 M282.72 113.42 C285.45 110.76, 288.54 106.95, 295.28 100.45 M288.68 113.44 C289.42 111.86, 291.68 109.07, 294.67 106.15 M288.38 113.29 C290.08 111.17, 292.26 108.94, 295.31 105.05" stroke="#fab005" stroke-width="0.5" fill="none"></path><path d="M0.5 1.04 C91.98 -1.64, 183.68 -1.53, 293.49 0.91 M291.69 -0.27 C294.2 40.37, 291.36 76.86, 292.32 112.32 M292.37 111.01 C210.31 112.02, 123.92 110.13, 0.54 111.39 M1.45 111.69 C-0.77 79.48, -0.32 44.32, 0.77 1.31" stroke="#000000" stroke-width="1.5" fill="none" stroke-dasharray="1.5 7"></path></g><g transform="translate(697.6661071777344 784.3590109507807) rotate(0 29.5 12.5)"><text x="0" y="18" font-family="Virgil, Segoe UI Emoji" font-size="20px" fill="#000000" text-anchor="start" style="white-space: pre;" direction="ltr">Kafka</text></g><g stroke-linecap="round"><g transform="translate(441.7971612524241 321.97765517895897) rotate(0 68.22117078453294 233.3170281119913)"><path d="M-0.6 -0.13 C22.39 77.86, 114.12 388.76, 137.05 466.76" stroke="#e67700" stroke-width="4.5" fill="none" stroke-dasharray="1.5 10"></path></g><g transform="translate(441.7971612524241 321.97765517895897) rotate(0 68.22117078453294 233.3170281119913)"><path d="M119.03 442.17 C122.39 447.51, 128.19 454.87, 137.08 467.52" stroke="#e67700" stroke-width="4.5" fill="none" stroke-dasharray="1.5 8"></path></g><g transform="translate(441.7971612524241 321.97765517895897) rotate(0 68.22117078453294 233.3170281119913)"><path d="M138.71 436.37 C137.61 442.91, 139.01 451.57, 137.08 467.52" stroke="#e67700" stroke-width="4.5" fill="none" stroke-dasharray="1.5 8"></path></g></g></svg>